<?xml version="1.0" encoding="UTF-8"?>
<svg version="1.1" xmlns="http://www.w3.org/2000/svg" width="612" height="612">
<path d="M0 0 C201.96 0 403.92 0 612 0 C612 201.96 612 403.92 612 612 C410.04 612 208.08 612 0 612 C0 410.04 0 208.08 0 0 Z " fill="#32BD9D" transform="translate(0,0)"/>
<path d="M0 0 C201.96 0 403.92 0 612 0 C612 201.96 612 403.92 612 612 C410.04 612 208.08 612 0 612 C0 410.04 0 208.08 0 0 Z M214.3125 78.625 C213.58232666 78.90190674 212.85215332 79.17881348 212.09985352 79.46411133 C208.1334795 81.01369831 204.55735689 82.79419588 200.89086914 84.98583984 C198.71518104 86.15276152 196.50521089 87.00442056 194.1953125 87.875 C188.69934283 90.00943779 183.8507455 92.85949742 178.875 96 C177.51846313 96.84788086 177.51846313 96.84788086 176.13452148 97.71289062 C167.74692096 103.02727905 159.76292773 108.81345223 152 115 C151.12384033 115.68449219 151.12384033 115.68449219 150.22998047 116.3828125 C148.78079663 117.54114349 147.38474555 118.76535664 146 120 C146 120.66 146 121.32 146 122 C145.46375 122.226875 144.9275 122.45375 144.375 122.6875 C135.58681298 127.54412967 128.24556726 136.3121013 122 144 C122 144.66 122 145.32 122 146 C121.12408203 146.36158203 121.12408203 146.36158203 120.23046875 146.73046875 C108.45465776 153.43298814 99.83929459 172.61671465 93.0390625 184.24804688 C92.09347661 185.84239001 91.11112954 187.41478549 90.125 188.984375 C85.19996659 196.94358078 81.96714298 205.29444827 78.73730469 214.03662109 C77.86360718 216.36320233 76.90720364 218.64948026 75.9375 220.9375 C70.39337636 234.83350088 66.52531647 249.27039492 64 264 C63.84901855 264.8765625 63.69803711 265.753125 63.54248047 266.65625 C59.20198628 293.02697628 60.02253116 319.64627744 64 346 C64.16024658 347.12583496 64.16024658 347.12583496 64.32373047 348.27441406 C67.99078085 373.50420241 77.56599692 397.36693837 88.8125 420.0625 C89.37598145 421.19993652 89.93946289 422.33737305 90.52001953 423.50927734 C91.0561084 424.56969238 91.59219727 425.63010742 92.14453125 426.72265625 C92.62253174 427.66890869 93.10053223 428.61516113 93.59301758 429.59008789 C94.88928757 431.81036918 96.16447305 433.24024432 98 435 C99.1875 437.6875 99.1875 437.6875 100 440 C100.66 440 101.32 440 102 440 C102.37125 441.06541016 102.37125 441.06541016 102.75 442.15234375 C108.05776853 454.24410394 119.86502684 465.54924714 128.55859375 475.33203125 C129.74929979 476.70989434 130.85605476 478.15981613 131.9375 479.625 C134.29117242 482.33528946 136.84663996 484.18808999 139.74609375 486.28125 C142.19456564 488.14836895 144.42570637 490.16105889 146.6875 492.25 C169.10915795 512.62712987 195.81389631 527.05265954 224.17089844 537.33154297 C225.79900565 537.92654531 227.41962753 538.54194007 229.0390625 539.16015625 C242.07658188 544.10088766 255.60627428 546.33866039 269.31884766 548.56103516 C271.52170437 548.92169226 273.72050337 549.30704896 275.91796875 549.69921875 C298.77981786 553.27693321 323.27568694 551.5974506 346 548 C347.03141113 547.83902832 348.06282227 547.67805664 349.12548828 547.51220703 C371.03399194 543.95254536 392.25570943 537.19137585 412 527 C412.82902832 526.57928223 413.65805664 526.15856445 414.51220703 525.72509766 C417.30512128 524.30600872 420.09137725 522.87472417 422.875 521.4375 C423.74358643 520.99035645 424.61217285 520.54321289 425.50708008 520.08251953 C431.26501416 517.06201822 436.66040976 513.70619256 442 510 C442.59603027 509.59273682 443.19206055 509.18547363 443.80615234 508.76586914 C451.58830851 503.42115584 458.92915283 497.72141274 466.0625 491.54296875 C467.59218683 490.21873188 469.12674073 488.89867267 470.70703125 487.63525391 C472.17121161 486.46382389 473.58986933 485.23596274 475 484 C475 483.34 475 482.68 475 482 C475.66 482 476.32 482 477 482 C477 481.34 477 480.68 477 480 C477.54398437 479.78988281 478.08796875 479.57976562 478.6484375 479.36328125 C481.86974868 477.49577693 484.15319132 474.92182632 486.625 472.1875 C487.15134033 471.61 487.67768066 471.0325 488.2199707 470.4375 C504.94839764 451.84083428 518.29588137 430.54115493 529 408 C529.29616211 407.39172363 529.59232422 406.78344727 529.89746094 406.15673828 C539.00862473 387.34020436 544.8232505 366.62784633 548 346 C548.14808105 345.05318359 548.29616211 344.10636719 548.44873047 343.13085938 C555.28695357 297.58196318 550.91665988 247.59289838 530 206 C529.42765625 204.81921875 528.8553125 203.6384375 528.265625 202.421875 C526.23298182 198.25207054 524.13165508 194.11996675 522 190 C521.43321533 188.90196045 521.43321533 188.90196045 520.85498047 187.78173828 C515.22404799 176.98227171 508.85019614 167.21527339 501.30419922 157.65820312 C500.19641519 156.24972893 499.11305052 154.82210288 498.03515625 153.390625 C491.47263113 144.68176814 484.03375513 135.82700411 475.5 129 C473 127 473 127 470.8359375 124.79296875 C454.15064823 108.3604869 434.57002323 96.83117154 414 86 C413.3095459 85.63213379 412.6190918 85.26426758 411.90771484 84.88525391 C351.20837238 52.63624478 277.13400964 54.60367474 214.3125 78.625 Z " fill="#FDFDF3" transform="translate(0,0)"/>
<path d="M0 0 C5.95982197 2.32806629 11.92885517 4.36904493 18.0625 6.203125 C27.7769098 9.14547028 37.35556939 12.53084794 46.9375 15.875 C47.79093994 16.17253174 48.64437988 16.47006348 49.52368164 16.77661133 C52.76496499 17.91317361 55.98167697 19.05181264 59.16015625 20.35546875 C62.14845141 21.51065363 65.14385443 21.81471817 68.3125 22.1875 C68.3125 22.8475 68.3125 23.5075 68.3125 24.1875 C69.13596924 24.29811768 69.95943848 24.40873535 70.80786133 24.52270508 C74.80460786 25.28084794 78.55214477 26.49942619 82.38671875 27.82421875 C83.99377706 28.36956996 85.60104471 28.91430459 87.20849609 29.45849609 C88.04427185 29.7425531 88.88004761 30.02661011 89.7411499 30.3192749 C96.63752769 32.6478603 103.56470744 34.88496547 110.4855957 37.1394043 C112.26887542 37.72085476 114.05174331 38.30356961 115.83422852 38.88745117 C118.45760872 39.74672387 121.08216978 40.60229572 123.70703125 41.45703125 C124.49970901 41.71740677 125.29238678 41.97778229 126.10908508 42.24604797 C129.82344199 43.45102771 133.45100808 44.5393536 137.3125 45.1875 C137.415625 45.826875 137.51875 46.46625 137.625 47.125 C137.851875 47.805625 138.07875 48.48625 138.3125 49.1875 C139.3025 49.5175 140.2925 49.8475 141.3125 50.1875 C141.3125 50.8475 141.3125 51.5075 141.3125 52.1875 C141.9725 52.1875 142.6325 52.1875 143.3125 52.1875 C144.1478125 53.239375 144.1478125 53.239375 145 54.3125 C147.32486088 57.20286758 149.75692713 59.35712205 152.5859375 61.72265625 C156.13350421 64.73246964 159.22092441 68.05571644 162.1875 71.625 C164.76743898 74.68909206 167.57708803 77.17929363 170.66015625 79.72265625 C173.17332629 81.95064388 175.16513105 84.61065726 177.3125 87.1875 C179.04061012 88.75960017 180.81838468 90.25490177 182.61328125 91.75 C185.80145412 94.44712096 188.64221094 97.31612423 191.1875 100.625 C193.44633229 103.34888599 195.88069022 105.46060905 198.5859375 107.72265625 C202.17775089 110.77000924 205.29819663 114.14510793 208.3125 117.75 C210.72989075 120.63082836 213.36539237 122.84714983 216.3125 125.1875 C216.3125 125.8475 216.3125 126.5075 216.3125 127.1875 C216.9725 127.1875 217.6325 127.1875 218.3125 127.1875 C218.3125 127.8475 218.3125 128.5075 218.3125 129.1875 C218.9725 129.1875 219.6325 129.1875 220.3125 129.1875 C222.60237119 132.62230679 222.38238621 134.03376683 221.76220703 137.99316406 C221.02062071 141.6117188 219.94518208 145.07051008 218.75 148.5625 C218.48751465 149.33706543 218.2250293 150.11163086 217.95458984 150.90966797 C214.93952817 159.57687661 211.23372493 167.89797462 207.3125 176.1875 C206.98491699 176.88649414 206.65733398 177.58548828 206.31982422 178.30566406 C199.73578585 192.26106976 191.6335333 204.88373604 182.3125 217.1875 C181.90805664 217.72342773 181.50361328 218.25935547 181.08691406 218.81152344 C175.90948108 225.64074843 170.53115509 232.23334323 164.75 238.5625 C164.23727539 239.1282373 163.72455078 239.69397461 163.19628906 240.27685547 C161.94503342 241.62206061 160.6336558 242.91087754 159.3125 244.1875 C158.6525 244.1875 157.9925 244.1875 157.3125 244.1875 C157.3125 244.8475 157.3125 245.5075 157.3125 246.1875 C156.6525 246.1875 155.9925 246.1875 155.3125 246.1875 C155.3125 246.8475 155.3125 247.5075 155.3125 248.1875 C152.89731624 250.76952212 150.02842821 252.93183413 147.3125 255.1875 C146.74370117 255.66719238 146.17490234 256.14688477 145.58886719 256.64111328 C136.55615017 264.24822987 127.38530735 271.0351757 117.3125 277.1875 C116.32636719 277.82816406 115.34023438 278.46882813 114.32421875 279.12890625 C107.41161844 283.56695704 100.25483259 287.40005352 92.9375 291.125 C91.99777344 291.6101709 91.05804688 292.0953418 90.08984375 292.59521484 C85.13830052 295.0718694 80.89898259 297.07923483 75.3125 297.1875 C74.3225 296.5275 73.3325 295.8675 72.3125 295.1875 C72.3125 294.5275 72.3125 293.8675 72.3125 293.1875 C71.755625 292.98125 71.19875 292.775 70.625 292.5625 C68.04658667 291.02938937 66.57490121 289.16452891 64.73046875 286.83203125 C62.71013528 284.48888967 60.38386662 282.60093228 58.01171875 280.625 C54.82354588 277.92787904 51.98278906 275.05887577 49.4375 271.75 C47.18092716 269.02883864 44.75032796 266.91881032 42.046875 264.66015625 C38.85075929 261.94633728 35.99344819 259.07273265 33.4375 255.75 C31.18092716 253.02883864 28.75032796 250.91881032 26.046875 248.66015625 C22.85075929 245.94633728 19.99344819 243.07273265 17.4375 239.75 C15.18092716 237.02883864 12.75032796 234.91881032 10.046875 232.66015625 C6.85075929 229.94633728 3.99344819 227.07273265 1.4375 223.75 C-0.81907284 221.02883864 -3.24967204 218.91881032 -5.953125 216.66015625 C-9.14924071 213.94633728 -12.00655181 211.07273265 -14.5625 207.75 C-16.81907284 205.02883864 -19.24967204 202.91881032 -21.953125 200.66015625 C-25.14924071 197.94633728 -28.00655181 195.07273265 -30.5625 191.75 C-32.81907284 189.02883864 -35.24967204 186.91881032 -37.953125 184.66015625 C-41.14924071 181.94633728 -44.00655181 179.07273265 -46.5625 175.75 C-48.81907284 173.02883864 -51.24967204 170.91881032 -53.953125 168.66015625 C-57.14924071 165.94633728 -60.00655181 163.07273265 -62.5625 159.75 C-64.77651259 157.08016129 -67.13145438 154.99893401 -69.80859375 152.8125 C-72.22690043 150.72099152 -74.44027666 148.46155586 -76.6875 146.1875 C-77.57308594 145.31351563 -78.45867187 144.43953125 -79.37109375 143.5390625 C-87.7000113 135.29284343 -87.7000113 135.29284343 -90.875 131.4375 C-92.92081176 128.95790581 -95.09330222 126.93346082 -97.5625 124.875 C-98.9466157 123.6561073 -100.32043599 122.42548695 -101.6875 121.1875 C-102.39213379 120.56286865 -103.09676758 119.9382373 -103.82275391 119.29467773 C-109.73462632 113.1502229 -110.51159763 108.10232399 -110.45095825 99.94154358 C-110.38984314 97.48023047 -110.28977524 95.02241254 -110.1875 92.5625 C-110.14730017 90.87378284 -110.11081088 89.18497306 -110.078125 87.49609375 C-109.99068328 83.39091067 -109.85306163 79.29024464 -109.6875 75.1875 C-110.46633545 75.0335376 -111.2451709 74.8795752 -112.04760742 74.72094727 C-115.62851193 73.99734823 -119.14702512 73.08762073 -122.6875 72.1875 C-122.6875 71.5275 -122.6875 70.8675 -122.6875 70.1875 C-123.2959375 70.11273438 -123.904375 70.03796875 -124.53125 69.9609375 C-131.27021998 68.950092 -137.23086191 66.98614963 -143.53515625 64.51464844 C-150.14011668 61.94640285 -156.84030762 60.00628548 -163.6875 58.1875 C-163.6875 54.2275 -163.6875 50.2675 -163.6875 46.1875 C-156.48726584 43.06450687 -149.38316111 40.38309306 -141.859375 38.16015625 C-138.81770049 37.22742601 -135.8539926 36.17756491 -132.875 35.0625 C-129.22005017 33.70374344 -125.63737623 32.62453589 -121.84375 31.74609375 C-117.04450112 30.50281007 -112.37683756 28.78812722 -107.6875 27.1875 C-106.25050148 26.70683151 -104.81304174 26.22753839 -103.375 25.75 C-102.67117187 25.51539063 -101.96734375 25.28078125 -101.2421875 25.0390625 C-95.390625 23.08854167 -89.5390625 21.13802083 -83.6875 19.1875 C-82.7284375 18.86652344 -81.769375 18.54554688 -80.78125 18.21484375 C-78.350348 17.4076124 -75.91667024 16.61127295 -73.48046875 15.8203125 C-66.41123364 13.51219313 -59.47409116 11.23337384 -52.7421875 8.05078125 C-49.45771168 6.67080186 -46.04216912 5.85921863 -42.59765625 4.97265625 C-35.81845556 3.143637 -29.19342646 0.82008052 -22.6875 -1.8125 C-14.36647258 -4.79550983 -7.86358031 -3.19350641 0 0 Z " fill="#228E76" transform="translate(319.6875,235.8125)"/>
<path d="M0 0 C5.95982197 2.32806629 11.92885517 4.36904493 18.0625 6.203125 C27.7769098 9.14547028 37.35556939 12.53084794 46.9375 15.875 C47.79093994 16.17253174 48.64437988 16.47006348 49.52368164 16.77661133 C52.76496499 17.91317361 55.98167697 19.05181264 59.16015625 20.35546875 C62.14845141 21.51065363 65.14385443 21.81471817 68.3125 22.1875 C68.3125 22.8475 68.3125 23.5075 68.3125 24.1875 C69.1360498 24.29803711 69.95959961 24.40857422 70.80810547 24.52246094 C74.80419231 25.28080987 78.54944259 26.50199941 82.3828125 27.828125 C83.98960056 28.37395525 85.59671024 28.91883945 87.20410156 29.46289062 C88.04026001 29.74656494 88.87641846 30.03023926 89.73791504 30.32250977 C94.03982448 31.76783385 98.3597006 33.15671283 102.6796875 34.546875 C104.4257995 35.11062055 106.17189321 35.67442277 107.91796875 36.23828125 C110.58140017 37.09766063 113.24514598 37.95601909 115.90966797 38.81201172 C118.54227803 39.6582586 121.17357576 40.50848295 123.8046875 41.359375 C124.60252655 41.61458923 125.4003656 41.86980347 126.22238159 42.13275146 C127.33602585 42.49388031 127.33602585 42.49388031 128.47216797 42.86230469 C129.11958954 43.07070984 129.76701111 43.27911499 130.43405151 43.49383545 C132.4560013 44.24049148 134.38464603 45.22357302 136.3125 46.1875 C136.3125 50.1475 136.3125 54.1075 136.3125 58.1875 C135.25417969 58.51621094 134.19585937 58.84492188 133.10546875 59.18359375 C123.01596635 62.33500902 112.9669315 65.59975814 102.9375 68.9375 C101.76727295 69.32607178 100.5970459 69.71464355 99.39135742 70.11499023 C97.73197144 70.66908569 97.73197144 70.66908569 96.0390625 71.234375 C95.05502441 71.56276367 94.07098633 71.89115234 93.05712891 72.22949219 C91.23154076 72.86671047 89.42471817 73.56053395 87.64208984 74.30957031 C85.3125 75.1875 85.3125 75.1875 82.3125 75.1875 C82.3125 86.7375 82.3125 98.2875 82.3125 110.1875 C81.6525 110.1875 80.9925 110.1875 80.3125 110.1875 C80.1475 111.0125 79.9825 111.8375 79.8125 112.6875 C76.91377485 119.45119201 71.50171945 123.47396833 65.3125 127.1875 C65.3125 107.7175 65.3125 88.2475 65.3125 68.1875 C63.0025 67.8575 60.6925 67.5275 58.3125 67.1875 C56.26386766 66.64064219 54.22771997 66.04481166 52.20703125 65.40234375 C51.07990723 65.0451123 49.9527832 64.68788086 48.79150391 64.31982422 C43.183575 62.49459094 37.58870099 60.63321945 32 58.75 C19.83444877 54.67281959 7.66008251 50.68180317 -4.6875 47.1875 C-5.0175 45.5375 -5.3475 43.8875 -5.6875 42.1875 C-8.5951457 41.35958266 -11.22840519 41.02556341 -14.25 41 C-15.01441406 40.98582031 -15.77882813 40.97164063 -16.56640625 40.95703125 C-18.98903503 41.0551625 -18.98903503 41.0551625 -21.6875 43.1875 C-21.3575 44.8375 -21.0275 46.4875 -20.6875 48.1875 C-18.90859375 48.51621094 -18.90859375 48.51621094 -17.09375 48.8515625 C-7.49568988 50.70336485 1.44229141 53.04533785 10.50390625 56.72265625 C14.1394532 58.17764845 17.84551091 59.27434756 21.60180664 60.37280273 C27.55334472 62.16153394 33.42031275 64.22435629 39.30273438 66.2265625 C45.23451399 68.22543872 51.16816228 70.02024732 57.23266602 71.57421875 C59.3125 72.1875 59.3125 72.1875 60.3125 73.1875 C60.40631302 75.02868029 60.42993954 76.87347641 60.42602539 78.71704102 C60.42594986 79.89818985 60.42587433 81.07933868 60.42579651 82.29627991 C60.42063522 83.5816716 60.41547394 84.86706329 60.41015625 86.19140625 C60.40803383 88.1536338 60.40803383 88.1536338 60.40586853 90.15550232 C60.4020441 93.63912859 60.39221446 97.12271339 60.38116455 100.60632324 C60.37094882 104.15876708 60.36637056 107.71121759 60.36132812 111.26367188 C60.35059212 118.23829832 60.3335166 125.21289717 60.3125 132.1875 C59.6525 132.1875 58.9925 132.1875 58.3125 132.1875 C58.3125 132.8475 58.3125 133.5075 58.3125 134.1875 C57.31089844 134.51363281 56.30929687 134.83976563 55.27734375 135.17578125 C53.9348418 135.61702315 52.59239693 136.05843871 51.25 136.5 C50.59322266 136.71333984 49.93644531 136.92667969 49.25976562 137.14648438 C45.97757544 138.22976882 42.77152335 139.38139649 39.6015625 140.76171875 C8.91265702 154.06510414 -33.14122154 152.994344 -64.62109375 142.1796875 C-67.00354546 141.23562707 -69.34194345 140.21905366 -71.6875 139.1875 C-73.27078805 138.60404377 -74.854123 138.02071479 -76.4375 137.4375 C-80.81047052 135.68415366 -84.89719866 133.55125763 -89 131.25 C-89.88026855 130.76418457 -89.88026855 130.76418457 -90.77832031 130.26855469 C-94.69905584 128.01373991 -97.54289865 125.40536902 -100.6875 122.1875 C-101.49179443 121.44910889 -102.29608887 120.71071777 -103.12475586 119.94995117 C-109.39829484 113.49707472 -110.61854067 108.49704639 -110.54647827 99.84591675 C-110.47771222 97.39519607 -110.36514465 94.94893607 -110.25 92.5 C-110.20476325 90.8158633 -110.1637149 89.13160863 -110.12695312 87.44726562 C-110.02869421 83.35771674 -109.8739571 79.27393844 -109.6875 75.1875 C-110.46633545 75.0335376 -111.2451709 74.8795752 -112.04760742 74.72094727 C-115.62851193 73.99734823 -119.14702512 73.08762073 -122.6875 72.1875 C-122.6875 71.5275 -122.6875 70.8675 -122.6875 70.1875 C-123.2959375 70.11273438 -123.904375 70.03796875 -124.53125 69.9609375 C-131.27021998 68.950092 -137.23086191 66.98614963 -143.53515625 64.51464844 C-150.14011668 61.94640285 -156.84030762 60.00628548 -163.6875 58.1875 C-163.6875 54.2275 -163.6875 50.2675 -163.6875 46.1875 C-156.48726584 43.06450687 -149.38316111 40.38309306 -141.859375 38.16015625 C-138.81770049 37.22742601 -135.8539926 36.17756491 -132.875 35.0625 C-129.22005017 33.70374344 -125.63737623 32.62453589 -121.84375 31.74609375 C-117.04450112 30.50281007 -112.37683756 28.78812722 -107.6875 27.1875 C-106.25050148 26.70683151 -104.81304174 26.22753839 -103.375 25.75 C-102.67117187 25.51539063 -101.96734375 25.28078125 -101.2421875 25.0390625 C-95.390625 23.08854167 -89.5390625 21.13802083 -83.6875 19.1875 C-82.7284375 18.86652344 -81.769375 18.54554688 -80.78125 18.21484375 C-78.350348 17.4076124 -75.91667024 16.61127295 -73.48046875 15.8203125 C-66.41123364 13.51219313 -59.47409116 11.23337384 -52.7421875 8.05078125 C-49.45771168 6.67080186 -46.04216912 5.85921863 -42.59765625 4.97265625 C-35.81845556 3.143637 -29.19342646 0.82008052 -22.6875 -1.8125 C-14.36647258 -4.79550983 -7.86358031 -3.19350641 0 0 Z " fill="#283E44" transform="translate(319.6875,235.8125)"/>
<path d="M0 0 C0.76183594 -0.00515625 1.52367187 -0.0103125 2.30859375 -0.015625 C4.83071277 0.28160913 6.43774672 0.86490584 8.5625 2.25 C9.3125 4.875 9.3125 4.875 9.5625 7.25 C10.5525 7.353125 11.5425 7.45625 12.5625 7.5625 C16.03965085 8.05223956 19.04830322 9.07810641 22.27734375 10.43359375 C24.95166792 11.38903606 27.67554842 12.01513718 30.43237305 12.68530273 C33.86699506 13.59582202 37.16875159 14.83388424 40.5 16.0625 C47.8557115 18.72118106 55.27751253 20.99432659 62.79296875 23.15234375 C67.09414151 24.4048096 71.32064597 25.81208338 75.5625 27.25 C76.89290545 27.59483364 78.2256008 27.93126906 79.5625 28.25 C79.56836624 29.50867386 79.57423248 30.76734772 79.58027649 32.06416321 C79.63742025 43.90985254 79.71013793 55.75535681 79.79821491 67.60085773 C79.84299572 73.69116717 79.88223481 79.78140851 79.90893555 85.87182617 C79.93489159 91.74635331 79.97523922 97.62061947 80.02568626 103.49498558 C80.04240718 105.73929798 80.05388879 107.98365557 80.06011391 110.22802162 C80.0696982 113.36494107 80.09768948 116.50118493 80.13012695 119.63793945 C80.12869186 120.57157822 80.12725677 121.50521698 80.1257782 122.46714783 C80.13831635 123.32110138 80.15085449 124.17505493 80.16377258 125.05488586 C80.16838155 125.79692922 80.17299051 126.53897257 80.17773914 127.30350208 C80.6660891 129.77405533 81.74563789 130.57084639 83.5625 132.25 C84.07421875 134.73046875 84.07421875 134.73046875 84.25 137.4375 C84.31574219 138.33855469 84.38148438 139.23960937 84.44921875 140.16796875 C84.50529297 141.19857422 84.50529297 141.19857422 84.5625 142.25 C85.2225 142.25 85.8825 142.25 86.5625 142.25 C89.53897055 151.23256292 91.18846368 158.75621746 90.5625 168.25 C84.42045561 172.71694137 79.04711436 173.1210106 71.5625 172.25 C68.62593516 171.41955747 65.77128845 170.45878845 63.5625 168.25 C62.68421378 158.15690753 64.0201607 149.33467861 68.5625 140.25 C69.2225 140.25 69.8825 140.25 70.5625 140.25 C70.5625 137.28 70.5625 134.31 70.5625 131.25 C71.8825 130.59 73.2025 129.93 74.5625 129.25 C74.0675 81.73 74.0675 81.73 73.5625 33.25 C67.9525 31.6 62.3425 29.95 56.5625 28.25 C53.69605677 27.33377451 50.84536244 26.41135917 48 25.4375 C46.50915465 24.93477699 45.01826672 24.43218026 43.52734375 23.9296875 C42.34954346 23.53088379 42.34954346 23.53088379 41.14794922 23.12402344 C36.12329449 21.42541495 31.09284049 19.74417813 26.0625 18.0625 C25.0717749 17.72951904 24.0810498 17.39653809 23.06030273 17.0534668 C14.03060175 14.03293882 5.24808117 11.18463924 -4.1875 9.77734375 C-6.4375 9.25 -6.4375 9.25 -8.4375 7.25 C-8.25 4.75 -8.25 4.75 -7.4375 2.25 C-4.32763793 0.17675862 -3.54641613 -0.02392186 0 0 Z " fill="#E9B02F" transform="translate(305.4375,275.75)"/>
<path d="M0 0 C0 3.63 0 7.26 0 11 C-1.05832031 11.32871094 -2.11664063 11.65742188 -3.20703125 11.99609375 C-13.23364666 15.12779577 -23.22058493 18.37062469 -33.1875 21.6875 C-34.33259033 22.06769287 -35.47768066 22.44788574 -36.6574707 22.83959961 C-37.75406006 23.20577393 -38.85064941 23.57194824 -39.98046875 23.94921875 C-40.94879639 24.27237061 -41.91712402 24.59552246 -42.91479492 24.9284668 C-46.6333292 26.21996375 -50.31420806 27.61782802 -54 29 C-54.33 36.92 -54.66 44.84 -55 53 C-61 56 -61 56 -70 58 C-70 46.45 -70 34.9 -70 23 C-65.4569242 20.7284621 -61.72055906 19.17837936 -56.9375 17.75 C-50.61032513 15.82852326 -44.32936681 13.79721467 -38.0625 11.6875 C-29.82934452 8.92640899 -21.57872453 6.22299638 -13.3125 3.5625 C-12.21881104 3.20824951 -11.12512207 2.85399902 -9.99829102 2.48901367 C-8.98436279 2.16392822 -7.97043457 1.83884277 -6.92578125 1.50390625 C-6.02255127 1.21330322 -5.11932129 0.9227002 -4.1887207 0.62329102 C-2 0 -2 0 0 0 Z " fill="#0A2A31" transform="translate(456,283)"/>
<path d="M0 0 C9.8845536 0.91949336 19.23669765 4.67594751 28.4765625 8.1171875 C31.94220305 9.32962521 35.4207437 10.18960235 39 11 C39 11.66 39 12.32 39 13 C40.216875 13.12375 41.43375 13.2475 42.6875 13.375 C46.32891674 13.74531357 48.37868408 14.55147363 52 16 C52.33 28.21 52.66 40.42 53 53 C52.34 53 51.68 53 51 53 C51 52.34 51 51.68 51 51 C50.01 51 49.02 51 48 51 C46.96210419 49.35666496 45.96432076 47.68756133 45 46 C44.01 45.34 43.02 44.68 42 44 C41.731875 43.38125 41.46375 42.7625 41.1875 42.125 C40.04443152 39.7004767 40.04443152 39.7004767 37 38 C33.87341377 35.91560918 33.5768483 35.1536966 32 32 C31.030625 31.360625 30.06125 30.72125 29.0625 30.0625 C25.82861744 27.88457909 24.90002491 26.30439114 23 23 C21.34211215 21.65576661 19.67423683 20.32381517 18 19 C16.38925301 17.20278722 14.85273081 15.36207201 13.33203125 13.48828125 C12.04920055 11.87117455 12.04920055 11.87117455 10 11 C10 10.34 10 9.68 10 9 C9.13375 8.62875 9.13375 8.62875 8.25 8.25 C5.67060021 6.81700012 3.93878408 5.21575324 2 3 C2 2.34 2 1.68 2 1 C1.34 0.67 0.68 0.34 0 0 Z " fill="#228D76" transform="translate(158,295)"/>
<path d="M0 0 C4.09765533 0.47805979 8.00520466 0.97203526 12 2 C12.00586624 3.25867386 12.01173248 4.51734772 12.01777649 5.81416321 C12.07492025 17.65985254 12.14763793 29.50535681 12.23571491 41.35085773 C12.28049572 47.44116717 12.31973481 53.53140851 12.34643555 59.62182617 C12.37239159 65.49635331 12.41273922 71.37061947 12.46318626 77.24498558 C12.47990718 79.48929798 12.49138879 81.73365557 12.49761391 83.97802162 C12.5071982 87.11494107 12.53518948 90.25118493 12.56762695 93.38793945 C12.56619186 94.32157822 12.56475677 95.25521698 12.5632782 96.21714783 C12.57581635 97.07110138 12.58835449 97.92505493 12.60127258 98.80488586 C12.60818603 99.91795089 12.60818603 99.91795089 12.61523914 101.05350208 C13.1035891 103.52405533 14.18313789 104.32084639 16 106 C16.51171875 108.48046875 16.51171875 108.48046875 16.6875 111.1875 C16.75324219 112.08855469 16.81898438 112.98960937 16.88671875 113.91796875 C16.92410156 114.60503906 16.96148437 115.29210937 17 116 C17.66 116 18.32 116 19 116 C21.97647055 124.98256292 23.62596368 132.50621746 23 142 C17.82421875 145.22265625 17.82421875 145.22265625 16 146 C15.01 145.67 14.02 145.34 13 145 C13.66 144.67 14.32 144.34 15 144 C15.14421597 129.47359303 15.14421597 129.47359303 14 115 C11.69 115 9.38 115 7 115 C10.75 112 10.75 112 13 112 C12.40138258 109.64828869 11.73075648 107.3140622 11 105 C10.34 104.67 9.68 104.34 9 104 C8.97686727 91.77846744 8.95908014 79.55694006 8.94818783 67.33539009 C8.94296105 61.66092279 8.93586709 55.98647042 8.92456055 50.31201172 C8.91372443 44.83962735 8.90772162 39.36725739 8.90512276 33.89486313 C8.90326982 31.80319873 8.89965171 29.71153516 8.89426994 27.61987686 C8.88704993 24.69855269 8.88600947 21.77728864 8.88647461 18.85595703 C8.88287933 17.98417816 8.87928406 17.11239929 8.87557983 16.21420288 C8.88594784 10.22810432 8.88594784 10.22810432 10 8 C9.72057545 6.32345271 9.39171753 4.65391846 9 3 C7.700625 2.87625 6.40125 2.7525 5.0625 2.625 C2.84765625 2.4140625 2.84765625 2.4140625 1 2 C0.67 1.34 0.34 0.68 0 0 Z " fill="#C6852A" transform="translate(373,302)"/>
<path d="M0 0 C0.66 0 1.32 0 2 0 C2 0.66 2 1.32 2 2 C5.3 2.66 8.6 3.32 12 4 C12 4.66 12 5.32 12 6 C13.19625 5.938125 14.3925 5.87625 15.625 5.8125 C19.78975968 5.80516768 22.35306845 6.93869086 26 9 C27.9959722 9.67863055 29.99568551 10.34641919 32 11 C33.34721283 11.63815344 34.68747118 12.29325371 36 13 C36.1875 15.375 36.1875 15.375 36 18 C32.22056893 20.51962072 29.37117433 20.59540913 25 20 C22.30667599 19.17585985 19.71816309 18.18823582 17.09765625 17.15625 C11.51403767 15.07207459 5.74376445 13.57639083 0 12 C0 8.04 0 4.08 0 0 Z " fill="#203940" transform="translate(156,282)"/>
<path d="M0 0 C0.76183594 -0.00515625 1.52367187 -0.0103125 2.30859375 -0.015625 C4.83071277 0.28160913 6.43774672 0.86490584 8.5625 2.25 C9.3125 4.875 9.3125 4.875 9.5625 7.25 C10.5525 7.353125 11.5425 7.45625 12.5625 7.5625 C16.03965085 8.05223956 19.04830322 9.07810641 22.27734375 10.43359375 C24.95166792 11.38903606 27.67554842 12.01513718 30.43237305 12.68530273 C33.86691335 13.59580035 37.16905593 14.83322302 40.5 16.0625 C47.35263207 18.55241246 54.25247573 20.70416314 61.29272461 22.60083008 C63.06588259 23.09451137 64.81720206 23.66540991 66.5625 24.25 C67.0575 25.24 67.0575 25.24 67.5625 26.25 C57.01393964 24.193783 46.82911829 21.39461795 36.5625 18.25 C36.5625 17.59 36.5625 16.93 36.5625 16.25 C35.53125 16.105625 34.5 15.96125 33.4375 15.8125 C30.13700187 15.33339543 26.84981659 14.81124917 23.5625 14.25 C23.5625 14.91 23.5625 15.57 23.5625 16.25 C24.8825 16.58 26.2025 16.91 27.5625 17.25 C26.5725 17.745 26.5725 17.745 25.5625 18.25 C23.72477675 17.58696641 21.91690944 16.84089633 20.125 16.0625 C13.48380266 13.38219614 6.86922301 11.8901216 -0.16381836 10.5949707 C-6.24360166 9.44389834 -6.24360166 9.44389834 -8.4375 7.25 C-8.25 4.75 -8.25 4.75 -7.4375 2.25 C-4.32763793 0.17675862 -3.54641613 -0.02392186 0 0 Z " fill="#DFA835" transform="translate(305.4375,275.75)"/>
<path d="M0 0 C2.31 0 4.62 0 7 0 C8.68747881 6.84031587 9.23972469 13.54388105 9.3125 20.5625 C9.33860352 21.75915283 9.33860352 21.75915283 9.36523438 22.97998047 C9.36328125 25.25390625 9.36328125 25.25390625 9 29 C5.76746204 31.15502531 4.74849077 31.46856135 1 31 C-0.64453125 29.8984375 -0.64453125 29.8984375 -2 28 C-2.29296875 24.86328125 -2.29296875 24.86328125 -2.1875 21.3125 C-2.16042969 20.13300781 -2.13335937 18.95351563 -2.10546875 17.73828125 C-2.07066406 16.83464844 -2.03585937 15.93101562 -2 15 C-1.34 15 -0.68 15 0 15 C0 10.71 0 6.42 0 2 C0.99 1.67 1.98 1.34 3 1 C2.01 0.67 1.02 0.34 0 0 Z " fill="#ECB030" transform="translate(380,417)"/>
<path d="M0 0 C1.65 0 3.3 0 5 0 C4.98428955 1.29417847 4.98428955 1.29417847 4.96826172 2.61450195 C4.93416017 5.81810521 4.90909143 9.0216159 4.89013672 12.2253418 C4.8800843 13.61144048 4.8664403 14.99751799 4.84912109 16.38354492 C4.82484048 18.3766975 4.81457969 20.37000533 4.8046875 22.36328125 C4.78897705 24.16212769 4.78897705 24.16212769 4.77294922 25.99731445 C4.76691928 29.18162827 4.76691928 29.18162827 7 32 C-1.90646388 31.25779468 -1.90646388 31.25779468 -5 28 C-6.75414957 18.31348287 -4.34107885 8.68215769 0 0 Z " fill="#F9E1B1" transform="translate(374,416)"/>
<path d="M0 0 C-2.36292656 2.52588702 -3.66462511 3.88820837 -7 5 C-7 5.33 -7 5.66 -7 6 C-8.03640625 6.12117188 -9.0728125 6.24234375 -10.140625 6.3671875 C-11.51046438 6.53607181 -12.88025349 6.70536411 -14.25 6.875 C-14.93191406 6.95363281 -15.61382812 7.03226562 -16.31640625 7.11328125 C-21.46029298 7.72127777 -21.46029298 7.72127777 -26 10 C-27.26804566 12.0335948 -27.26804566 12.0335948 -28 14 C-29.02480469 13.95359375 -30.04960937 13.9071875 -31.10546875 13.859375 C-32.46611656 13.82183989 -33.82679605 13.78544159 -35.1875 13.75 C-35.86103516 13.71648437 -36.53457031 13.68296875 -37.22851562 13.6484375 C-42.23971002 13.5506581 -44.34803911 14.70480261 -48 18 C-48.99 18 -49.98 18 -51 18 C-51.33 19.65 -51.66 21.3 -52 23 C-52.73605469 22.90460938 -53.47210938 22.80921875 -54.23046875 22.7109375 C-55.69419922 22.54464844 -55.69419922 22.54464844 -57.1875 22.375 C-58.15042969 22.25898438 -59.11335937 22.14296875 -60.10546875 22.0234375 C-63.02808824 21.80878136 -63.02808824 21.80878136 -65.61328125 23.1015625 C-68 24 -68 24 -70.14916992 23.05615234 C-70.75994385 22.70762207 -71.37071777 22.3590918 -72 22 C-71.19187866 21.7371521 -71.19187866 21.7371521 -70.36743164 21.46899414 C-63.84898261 19.32562545 -57.43078454 16.95552826 -51.01757812 14.51757812 C-46.05065533 12.6595361 -41.15588026 11.23570684 -36 10 C-34.01275842 9.37945807 -32.03262114 8.73542204 -30.0625 8.0625 C-29.03382813 7.71316406 -28.00515625 7.36382812 -26.9453125 7.00390625 C-25.97335938 6.67261719 -25.00140625 6.34132813 -24 6 C-22.47950133 5.49898322 -20.95869857 4.9988877 -19.4375 4.5 C-16.97429427 3.69091783 -14.55863359 2.82875948 -12.140625 1.890625 C-11.16609375 1.51421875 -10.1915625 1.1378125 -9.1875 0.75 C-7.84751953 0.21632813 -7.84751953 0.21632813 -6.48046875 -0.328125 C-3.83459754 -1.04480193 -2.54180759 -0.92429367 0 0 Z " fill="#334A4F" transform="translate(236,257)"/>
<path d="M0 0 C1.953125 1.17578125 1.953125 1.17578125 4 3 C4.609375 5.48046875 4.609375 5.48046875 4.75 8.1875 C4.80671875 9.08855469 4.8634375 9.98960937 4.921875 10.91796875 C4.96054687 11.94857422 4.96054687 11.94857422 5 13 C5.66 13 6.32 13 7 13 C9.97647055 21.98256292 11.62596368 29.50621746 11 39 C5.82421875 42.22265625 5.82421875 42.22265625 4 43 C3.01 42.67 2.02 42.34 1 42 C1.99 41.505 1.99 41.505 3 41 C3.14421597 26.47359303 3.14421597 26.47359303 2 12 C-0.31 12 -2.62 12 -5 12 C-1.25 9 -1.25 9 1 9 C0.67 6.03 0.34 3.06 0 0 Z " fill="#C4852A" transform="translate(385,405)"/>
<path d="M0 0 C2.52376516 4.57896124 2.96841467 9.11814585 3.625 14.25 C3.82283081 15.79010742 3.82283081 15.79010742 4.0246582 17.36132812 C5.63997239 31.520126 5.26488274 45.77511775 5 60 C4.34 60 3.68 60 3 60 C2.87625 60.5775 2.7525 61.155 2.625 61.75 C1.99351176 64.02335767 1.11141809 65.9253529 0 68 C0 65.36 0 62.72 0 60 C0.66 60 1.32 60 2 60 C2 57.36 2 54.72 2 52 C1.34 52 0.68 52 0 52 C-1.38297872 30.46808511 -1.38297872 30.46808511 0 20 C0.33 20 0.66 20 1 20 C1.16019376 17.19660926 1.17822214 15.36692794 -0.0625 12.8125 C-1.49990037 8.50029889 -0.63765633 4.43774337 0 0 Z " fill="#3BC3A3" transform="translate(546,260)"/>
<path d="M0 0 C0 0.99 0 1.98 0 3 C-0.99 3.33 -1.98 3.66 -3 4 C-3 17.2 -3 30.4 -3 44 C-3.66 44 -4.32 44 -5 44 C-4.67 45.98 -4.34 47.96 -4 50 C-7 48 -7 48 -7.40786743 46.2053833 C-7.42231903 45.48179626 -7.43677063 44.75820923 -7.45166016 44.01269531 C-7.4740274 43.19134094 -7.49639465 42.36998657 -7.5194397 41.52374268 C-7.52591522 40.63418884 -7.53239075 39.74463501 -7.5390625 38.828125 C-7.55141937 37.91295105 -7.56377625 36.9977771 -7.57650757 36.05487061 C-7.59610308 34.11477061 -7.60731105 32.17457074 -7.61083984 30.234375 C-7.62488454 27.27433428 -7.69213148 24.31856148 -7.76171875 21.359375 C-7.77412242 19.4739771 -7.78333931 17.58855501 -7.7890625 15.703125 C-7.81578033 14.82166809 -7.84249817 13.94021118 -7.87002563 13.03204346 C-7.82961925 9.35101735 -7.80055493 6.96127228 -5.3883667 4.06481934 C-3.65469574 2.56951653 -1.92162857 1.24150928 0 0 Z " fill="#328A6A" transform="translate(392,357)"/>
<path d="M0 0 C6.60326639 0.38095768 12.54645762 2.25734307 18.81103516 4.29199219 C21.44770011 5.14480597 24.08891137 5.98277708 26.73046875 6.8203125 C32.15558775 8.54081283 37.5783915 10.26847242 43 12 C43 12.33 43 12.66 43 13 C41.9378125 12.9278125 40.875625 12.855625 39.78125 12.78125 C38.35417564 12.68736353 36.92709178 12.59362127 35.5 12.5 C34.45585937 12.42845703 34.45585937 12.42845703 33.390625 12.35546875 C29.8123269 12.12354202 26.2738027 11.98497513 22.6875 12.03125 C19.00038343 12.00000325 16.40151915 11.36060766 13 10 C13 8.35 13 6.7 13 5 C11.82630859 4.90912109 11.82630859 4.90912109 10.62890625 4.81640625 C9.61699219 4.73261719 8.60507812 4.64882813 7.5625 4.5625 C6.04849609 4.44068359 6.04849609 4.44068359 4.50390625 4.31640625 C2 4 2 4 1 3 C-1.01964199 2.92755947 -3.04167124 2.91622812 -5.0625 2.9375 C-6.16722656 2.94652344 -7.27195312 2.95554687 -8.41015625 2.96484375 C-9.26480469 2.97644531 -10.11945313 2.98804688 -11 3 C-11 2.34 -11 1.68 -11 1 C-10.28972656 1.01160156 -9.57945312 1.02320313 -8.84765625 1.03515625 C-7.92855469 1.04417969 -7.00945312 1.05320312 -6.0625 1.0625 C-4.68771484 1.07990234 -4.68771484 1.07990234 -3.28515625 1.09765625 C-1.03406673 1.25949049 -1.03406673 1.25949049 0 0 Z " fill="#3B4847" transform="translate(323,292)"/>
<path d="M0 0 C0 0.66 0 1.32 0 2 C-2.52475462 3.26237731 -4.31200466 3.09856404 -7.125 3.0625 C-8.03507812 3.05347656 -8.94515625 3.04445312 -9.8828125 3.03515625 C-10.58148438 3.02355469 -11.28015625 3.01195312 -12 3 C-12.66 1.68 -13.32 0.36 -14 -1 C-15.98 -0.01 -15.98 -0.01 -18 1 C-18 1.66 -18 2.32 -18 3 C-23.61 3 -29.22 3 -35 3 C-32 1 -32 1 -30 1 C-29.67 0.01 -29.34 -0.98 -29 -2 C-18.24476159 -6.76330418 -10.25950779 -4.52007003 0 0 Z " fill="#324D50" transform="translate(322,237)"/>
<path d="M0 0 C1.5778125 -0.0309375 1.5778125 -0.0309375 3.1875 -0.0625 C6.08004779 0.00177884 7.56583359 0.50205144 10 2 C9.67 1.01 9.34 0.02 9 -1 C11.475 -0.505 11.475 -0.505 14 0 C14.103125 1.093125 14.20625 2.18625 14.3125 3.3125 C14.99727202 6.98536808 15.27919304 7.75237686 18 10 C18 10.66 18 11.32 18 12 C15.03 11.34 12.06 10.68 9 10 C8.67 8.35 8.34 6.7 8 5 C5.11288129 4.17979582 2.49986689 3.83818379 -0.5 3.8125 C-1.62921875 3.79123047 -1.62921875 3.79123047 -2.78125 3.76953125 C-5.24864173 4.02582722 -6.86356256 4.77154847 -9 6 C-10 5 -10 5 -10.0625 2.4375 C-10.041875 1.633125 -10.02125 0.82875 -10 0 C-6.26556924 -1.24481025 -3.87017914 -0.59036631 0 0 Z " fill="#404846" transform="translate(306,273)"/>
<path d="M0 0 C6.875 1.875 6.875 1.875 8 3 C8.04080783 4.99958364 8.04254356 7.00045254 8 9 C6.02 9.66 4.04 10.32 2 11 C2 11.66 2 12.32 2 13 C2.99 13 3.98 13 5 13 C5 14.98 5 16.96 5 19 C4.67 19 4.34 19 4 19 C4 17.35 4 15.7 4 14 C3.34 14 2.68 14 2 14 C2 18.29 2 22.58 2 27 C1.34 27 0.68 27 0 27 C0.33 21.72 0.66 16.44 1 11 C0.01 11 -0.98 11 -2 11 C-2.05399736 9.54207116 -2.09279177 8.08357288 -2.125 6.625 C-2.15980469 5.40683594 -2.15980469 5.40683594 -2.1953125 4.1640625 C-2 2 -2 2 0 0 Z " fill="#E8B33C" transform="translate(378,405)"/>
<path d="M0 0 C0.99 0 1.98 0 3 0 C3 7.26 3 14.52 3 22 C1.35 21.67 -0.3 21.34 -2 21 C-4.62299724 15.75400551 -3.19826732 7.54198634 -2 2 C-1.34 2 -0.68 2 0 2 C0 1.34 0 0.68 0 0 Z " fill="#F8E6C4" transform="translate(374,424)"/>
<path d="M0 0 C6.97496299 1.23749343 13.40063235 3.45893507 20 6 C18.625 8 18.625 8 17 10 C16.34 10 15.68 10 15 10 C15 9.34 15 8.68 15 8 C9.42289352 6.93204344 4.60563042 7.17377329 -1 8 C-1.04241723 5.66705225 -1.04092937 3.33297433 -1 1 C-0.67 0.67 -0.34 0.34 0 0 Z M5 7 C8 8 8 8 8 8 Z " fill="#324E51" transform="translate(425,272)"/>
<path d="M0 0 C8.81684992 1.99317086 17.27036906 4.3152469 25.68188477 7.63818359 C32.20360553 10.17596106 38.87590476 12.11865087 45.61425781 13.99560547 C46.43120117 14.22908691 47.24814453 14.46256836 48.08984375 14.703125 C48.82066162 14.90583008 49.55147949 15.10853516 50.30444336 15.31738281 C52 16 52 16 53 18 C42.45143964 15.943783 32.26661829 13.14461795 22 10 C22 9.34 22 8.68 22 8 C21.00871094 7.88785156 20.01742188 7.77570313 18.99609375 7.66015625 C14.83578513 7.06582645 11.01811858 5.82332515 7.0625 4.4375 C6.37865234 4.20353516 5.69480469 3.96957031 4.99023438 3.72851562 C3.32491499 3.15788171 1.66217507 2.57972902 0 2 C0 1.34 0 0.68 0 0 Z " fill="#C0862F" transform="translate(320,284)"/>
<path d="M0 0 C1.21236328 0.02707031 1.21236328 0.02707031 2.44921875 0.0546875 C3.37154297 0.08949219 3.37154297 0.08949219 4.3125 0.125 C4.6425 2.105 4.9725 4.085 5.3125 6.125 C4.3225 6.125 3.3325 6.125 2.3125 6.125 C2.3125 6.785 2.3125 7.445 2.3125 8.125 C-1.98049643 9.38764601 -4.56581311 8.75450412 -8.6875 7.125 C-8.375 4.75 -8.375 4.75 -7.6875 2.125 C-4.48369983 -0.01086678 -3.66810033 -0.10632175 0 0 Z " fill="#EDB332" transform="translate(305.6875,275.875)"/>
<path d="M0 0 C0.33 0 0.66 0 1 0 C1.01030746 1.03094788 1.02061493 2.06189575 1.03123474 3.12408447 C1.1289531 12.83555267 1.23168577 22.54695656 1.33933926 32.25831985 C1.39452462 37.25112971 1.44793766 42.24394546 1.49731445 47.23681641 C1.54502263 52.05439085 1.59736785 56.87189455 1.65294075 61.68938446 C1.67333504 63.5281778 1.69205293 65.36699052 1.70907402 67.20581818 C1.73318277 69.779536 1.76322851 72.35312069 1.79467773 74.92675781 C1.8004332 75.68848801 1.80618866 76.4502182 1.81211853 77.23503113 C1.8592139 80.62146461 1.94501886 83.76160079 3 87 C2.01 86.67 1.02 86.34 0 86 C0 57.62 0 29.24 0 0 Z " fill="#DB9735" transform="translate(382,320)"/>
<path d="M0 0 C0 11.55 0 23.1 0 35 C-0.66 35 -1.32 35 -2 35 C-2.33 24.44 -2.66 13.88 -3 3 C-4.98 3 -6.96 3 -9 3 C-6.01800145 0.01800145 -4.21244839 0 0 0 Z " fill="#112D2F" transform="translate(379,309)"/>
<path d="M0 0 C0.33 0 0.66 0 1 0 C1 -0.33 1 -0.66 1 -1 C4.3 -1 7.6 -1 11 -1 C11 2.11257569 10.82638376 4.10765685 10 7 C2.51209617 5.69575446 -4.58150891 4.27899406 -11 0 C-7.01028556 -1.05610088 -4.02594606 -0.82348897 0 0 Z " fill="#374749" transform="translate(373,297)"/>
<path d="M0 0 C0 0.66 0 1.32 0 2 C-4.41080354 2.02490464 -8.82156871 2.04295604 -13.23242188 2.05493164 C-14.72982497 2.05992943 -16.22722327 2.0667299 -17.72460938 2.07543945 C-19.88933505 2.08770623 -22.05399565 2.09327397 -24.21875 2.09765625 C-26.1668457 2.10551147 -26.1668457 2.10551147 -28.15429688 2.11352539 C-32.18086673 1.9946608 -36.01415096 1.56026769 -40 1 C-40 0.67 -40 0.34 -40 0 C-35.58945584 -0.16895848 -31.17870411 -0.32935962 -26.76757812 -0.48217773 C-25.27009925 -0.53522151 -23.7726982 -0.59051613 -22.27539062 -0.64819336 C-20.11084783 -0.7311675 -17.94614514 -0.80577507 -15.78125 -0.87890625 C-14.48251953 -0.9260376 -13.18378906 -0.97316895 -11.84570312 -1.02172852 C-7.78652798 -0.99879387 -4.01251042 -0.57962821 0 0 Z " fill="#50CAAA" transform="translate(320,549)"/>
<path d="M0 0 C2.04136395 -0.05451714 4.08315856 -0.09302485 6.125 -0.125 C7.83042969 -0.15980469 7.83042969 -0.15980469 9.5703125 -0.1953125 C13.05757767 0.00327891 15.7553862 0.7475199 19 2 C16.0865925 3.54753747 13.21672747 4.66269331 10.0625 5.625 C8.81146484 6.01558594 8.81146484 6.01558594 7.53515625 6.4140625 C4.93535395 7.01494131 2.65836091 7.10462243 0 7 C0.66 6.67 1.32 6.34 2 6 C2 5.34 2 4.68 2 4 C1.34 4 0.68 4 0 4 C0.33 3.34 0.66 2.68 1 2 C0.67 1.34 0.34 0.68 0 0 Z " fill="#3E4947" transform="translate(360,306)"/>
<path d="M0 0 C0.33 0 0.66 0 1 0 C1.33 1.98 1.66 3.96 2 6 C1.01 6 0.02 6 -1 6 C-1.33 6.99 -1.66 7.98 -2 9 C-2.66 9 -3.32 9 -4 9 C-4.28875 9.639375 -4.5775 10.27875 -4.875 10.9375 C-6 13 -6 13 -8 14 C-7.67 15.65 -7.34 17.3 -7 19 C-8.32 18.34 -9.64 17.68 -11 17 C-11.33 17.99 -11.66 18.98 -12 20 C-12.875 17.9375 -12.875 17.9375 -13 15 C-11.32045192 12.35211313 -9.35602963 10.0697273 -7 8 C-6.34 8 -5.68 8 -5 8 C-4.731875 7.4225 -4.46375 6.845 -4.1875 6.25 C-2.97790559 3.95813691 -1.64363461 2.00094648 0 0 Z " fill="#40C0A0" transform="translate(127,138)"/>
<path d="M0 0 C0 0.66 0 1.32 0 2 C-0.66 2.66 -1.32 3.32 -2 4 C-1.01 5.485 -1.01 5.485 0 7 C-4.27327112 8.24213914 -6.71541119 7.69146302 -10.8125 6.0625 C-11.78832031 5.68222656 -12.76414062 5.30195313 -13.76953125 4.91015625 C-14.87361328 4.45962891 -14.87361328 4.45962891 -16 4 C-16 3.67 -16 3.34 -16 3 C-14.01432292 2.51171875 -12.02864583 2.0234375 -10.04296875 1.53515625 C-6.46666836 0.59834334 -3.72857313 -0.10077225 0 0 Z " fill="#34454B" transform="translate(360,288)"/>
<path d="M0 0 C0.66 0 1.32 0 2 0 C1.67 7.92 1.34 15.84 1 24 C1.66 24 2.32 24 3 24 C2.67 25.65 2.34 27.3 2 29 C2.66 29.33 3.32 29.66 4 30 C4 32.31 4 34.62 4 37 C3.01 37 2.02 37 1 37 C-0.21077701 33.36766898 -0.12444164 30.04878013 -0.09765625 26.26953125 C-0.0962413 25.51911057 -0.09482635 24.76868988 -0.09336853 23.99552917 C-0.0877756 21.6011454 -0.07522444 19.20685547 -0.0625 16.8125 C-0.05748408 15.18815239 -0.05292134 13.56380332 -0.04882812 11.93945312 C-0.03780848 7.95959931 -0.02054873 3.97981556 0 0 Z " fill="#16373A" transform="translate(211,312)"/>
<path d="M0 0 C5.86809507 0.52393706 10.54873741 1.76108858 16 4 C16 4.33 16 4.66 16 5 C14.865625 5.12375 13.73125 5.2475 12.5625 5.375 C10.7990625 5.684375 10.7990625 5.684375 9 6 C8.67 6.66 8.34 7.32 8 8 C7.01 8 6.02 8 5 8 C5 7.01 5 6.02 5 5 C4.01 5 3.02 5 2 5 C2 5.66 2 6.32 2 7 C2.66 7.33 3.32 7.66 4 8 C3.01 8 2.02 8 1 8 C0.17361624 5.10765685 0 3.11257569 0 0 Z " fill="#344D51" transform="translate(328,240)"/>
<path d="M0 0 C0.33 1.32 0.66 2.64 1 4 C1.66 4 2.32 4 3 4 C3.33 3.01 3.66 2.02 4 1 C4.02696365 2.79158489 4.04637917 4.58328473 4.0625 6.375 C4.07410156 7.37273437 4.08570313 8.37046875 4.09765625 9.3984375 C4 12 4 12 3 14 C2.34 14 1.68 14 1 14 C0.71125 14.639375 0.4225 15.27875 0.125 15.9375 C-1 18 -1 18 -3 19 C-2.68798326 16.95825942 -2.37536431 14.91661087 -2.0625 12.875 C-1.88847656 11.73804688 -1.71445312 10.60109375 -1.53515625 9.4296875 C-1.04410734 6.28267331 -0.52981281 3.14069217 0 0 Z " fill="#F0F8EF" transform="translate(547,346)"/>
<path d="M0 0 C5.86809507 0.52393706 10.54873741 1.76108858 16 4 C16 4.33 16 4.66 16 5 C13.36 5 10.72 5 8 5 C8 5.99 8 6.98 8 8 C5.33333333 7.33333333 2.66666667 6.66666667 0 6 C0 4.02 0 2.04 0 0 Z " fill="#324D50" transform="translate(352,248)"/>
<path d="M0 0 C1.00289063 0.28746094 2.00578125 0.57492187 3.0390625 0.87109375 C3.80992187 1.09925781 4.58078125 1.32742188 5.375 1.5625 C5.375 2.2225 5.375 2.8825 5.375 3.5625 C6.695 3.5625 8.015 3.5625 9.375 3.5625 C9.375 4.2225 9.375 4.8825 9.375 5.5625 C10.365 5.8925 11.355 6.2225 12.375 6.5625 C4.98721054 7.03406103 -1.10071106 4.94982834 -7.625 1.5625 C-7.625 0.9025 -7.625 0.2425 -7.625 -0.4375 C-4.72405209 -1.88797396 -3.06527404 -0.89106803 0 0 Z " fill="#E3AA32" transform="translate(336.625,290.4375)"/>
<path d="M0 0 C1.093125 0 2.18625 0 3.3125 0 C6 0 6 0 8 1 C8 1.66 8 2.32 8 3 C7.10796875 3.04898437 6.2159375 3.09796875 5.296875 3.1484375 C4.12640625 3.22320312 2.9559375 3.29796875 1.75 3.375 C0.00976562 3.47941406 0.00976562 3.47941406 -1.765625 3.5859375 C-4.70694334 3.96248308 -6.49949011 4.4774123 -9 6 C-10 5 -10 5 -10.0625 2.4375 C-10.041875 1.633125 -10.02125 0.82875 -10 0 C-6.26556924 -1.24481025 -3.87017914 -0.59036631 0 0 Z " fill="#324751" transform="translate(306,273)"/>
<path d="M0 0 C0.66 0 1.32 0 2 0 C1.566875 1.50626953 1.566875 1.50626953 1.125 3.04296875 C-1.30446852 11.86007733 -2.56856431 19.77662346 -2 29 C-2.99 28.67 -3.98 28.34 -5 28 C-5.54342588 17.7956696 -4.61158012 9.22316025 0 0 Z " fill="#DAB136" transform="translate(374,416)"/>
<path d="M0 0 C1.32 0.33 2.64 0.66 4 1 C4.33 2.65 4.66 4.3 5 6 C6.32 6.33 7.64 6.66 9 7 C3.21537027 8.49971882 -2.01464522 9.41278309 -8 9 C-8.99 8.34 -9.98 7.68 -11 7 C-8.03 7 -5.06 7 -2 7 C-2 6.34 -2 5.68 -2 5 C-1.01 5 -0.02 5 1 5 C0.67 3.35 0.34 1.7 0 0 Z " fill="#CA8B2F" transform="translate(310,277)"/>
<path d="M0 0 C4.20240011 3.71750779 6.99782679 8.31660979 10 13 C9.01 13.33 8.02 13.66 7 14 C6.67 14.66 6.34 15.32 6 16 C5.87625 15.195625 5.7525 14.39125 5.625 13.5625 C5.41875 12.716875 5.2125 11.87125 5 11 C4.34 10.67 3.68 10.34 3 10 C3 8.68 3 7.36 3 6 C1.68 6 0.36 6 -1 6 C-0.67 4.02 -0.34 2.04 0 0 Z " fill="#3DBFA1" transform="translate(500,157)"/>
<path d="M0 0 C-0.66 0 -1.32 0 -2 0 C-2 0.99 -2 1.98 -2 3 C-3.64432706 3.36109542 -5.2905208 3.71370076 -6.9375 4.0625 C-7.85402344 4.25972656 -8.77054688 4.45695312 -9.71484375 4.66015625 C-10.46894531 4.77230469 -11.22304687 4.88445312 -12 5 C-12.33 4.67 -12.66 4.34 -13 4 C-15.33944736 4.28730055 -17.6739143 4.61936779 -20 5 C-20.33 4.34 -20.66 3.68 -21 3 C-18.25244513 2.30111323 -15.50268803 1.6156012 -12.75 0.9375 C-11.97269531 0.73833984 -11.19539062 0.53917969 -10.39453125 0.33398438 C-9.64042969 0.15029297 -8.88632813 -0.03339844 -8.109375 -0.22265625 C-7.07248535 -0.48187866 -7.07248535 -0.48187866 -6.01464844 -0.74633789 C-3.74929191 -1.03156637 -2.1631688 -0.68076195 0 0 Z " fill="#49C6A7" transform="translate(263,66)"/>
<path d="M0 0 C0 7.92 0 15.84 0 24 C-0.66 24 -1.32 24 -2 24 C-2 16.74 -2 9.48 -2 2 C-3.32 1.67 -4.64 1.34 -6 1 C-3 0 -3 0 0 0 Z " fill="#20393D" transform="translate(379,344)"/>
<path d="M0 0 C0.66 0.33 1.32 0.66 2 1 C1.34 2.98 0.68 4.96 0 7 C0.66 7.66 1.32 8.32 2 9 C1.67 9.66 1.34 10.32 1 11 C-1.64 11 -4.28 11 -7 11 C-6.34 10.67 -5.68 10.34 -5 10 C-5.99 9.34 -6.98 8.68 -8 8 C-5.33333333 5.33333333 -2.66666667 2.66666667 0 0 Z " fill="#3FC2A3" transform="translate(140,125)"/>
<path d="M0 0 C0.66 0.66 1.32 1.32 2 2 C1.12225353 3.63484051 0.22199681 5.25760768 -0.6875 6.875 C-1.18636719 7.77992188 -1.68523438 8.68484375 -2.19921875 9.6171875 C-4.25793052 12.34129635 -5.77121789 13.04291638 -9 14 C-9.6875 12.1875 -9.6875 12.1875 -10 10 C-8.875 8.625 -8.875 8.625 -7 7 C-6.13387633 5.96825394 -5.28054928 4.92568456 -4.4375 3.875 C-2 1 -2 1 0 0 Z " fill="#29937B" transform="translate(515,429)"/>
<path d="M0 0 C0.64324219 0.06058594 1.28648437 0.12117187 1.94921875 0.18359375 C9.29416058 0.86465112 16.64413091 1.45035636 24 2 C24 2.33 24 2.66 24 3 C7.1070615 4.33257403 7.1070615 4.33257403 0 3 C0 2.01 0 1.02 0 0 Z " fill="#3FC0A0" transform="translate(264,545)"/>
<path d="M0 0 C0.99 0.33 1.98 0.66 3 1 C3 1.66 3 2.32 3 3 C4.65 2.67 6.3 2.34 8 2 C8.33 3.32 8.66 4.64 9 6 C8.34 6 7.68 6 7 6 C7 6.66 7 7.32 7 8 C3.26512223 7.5020163 1.18762365 7.12508244 -2 5 C-1.34 3.35 -0.68 1.7 0 0 Z " fill="#35464D" transform="translate(327,280)"/>
<path d="M0 0 C-1.2065625 0.5878125 -1.2065625 0.5878125 -2.4375 1.1875 C-5.23064738 2.76948191 -5.23064738 2.76948191 -5.8125 5.6875 C-5.874375 6.450625 -5.93625 7.21375 -6 8 C-8.64 8 -11.28 8 -14 8 C-13.01 7.01 -12.02 6.02 -11 5 C-13.31 5 -15.62 5 -18 5 C-17 3 -17 3 -14.56640625 2.18359375 C-13.07947266 1.81427734 -13.07947266 1.81427734 -11.5625 1.4375 C-2.66839991 -0.80051997 -2.66839991 -0.80051997 0 0 Z " fill="#335355" transform="translate(286,240)"/>
<path d="M0 0 C0.66 0.33 1.32 0.66 2 1 C2 2.65 2 4.3 2 6 C0.68 6 -0.64 6 -2 6 C-2 6.66 -2 7.32 -2 8 C-3.98 8.33 -5.96 8.66 -8 9 C-7.34 8.67 -6.68 8.34 -6 8 C-6.99 7.34 -7.98 6.68 -9 6 C-6.03 4.02 -3.06 2.04 0 0 Z M-10 9 C-8 10 -8 10 -8 10 Z " fill="#3DC0A4" transform="translate(182,94)"/>
<path d="M0 0 C4.1027059 0.47338914 7.3837152 0.99095289 11 3 C11.66 3 12.32 3 13 3 C13 3.66 13 4.32 13 5 C12.34 5 11.68 5 11 5 C12.32 6.32 13.64 7.64 15 9 C14.67 9.66 14.34 10.32 14 11 C11.6638026 9.35810616 9.33099647 7.7117475 7 6.0625 C6.33226562 5.59392578 5.66453125 5.12535156 4.9765625 4.64257812 C3.29970233 3.45337627 1.64761213 2.22940446 0 1 C0 0.67 0 0.34 0 0 Z " fill="#46C2A4" transform="translate(160,502)"/>
<path d="M0 0 C-3.3 3.63 -6.6 7.26 -10 11 C-10.33 9.68 -10.66 8.36 -11 7 C-10.34 7 -9.68 7 -9 7 C-8.67 4.69 -8.34 2.38 -8 0 C-4.71303767 -0.79953138 -3.28976808 -1.09658936 0 0 Z " fill="#308F77" transform="translate(496,461)"/>
<path d="M0 0 C2 4 2 4 2 6 C1.34 6 0.68 6 0 6 C0.33 7.65 0.66 9.3 1 11 C-1.31 11 -3.62 11 -6 11 C-4.02 7.37 -2.04 3.74 0 0 Z " fill="#EAF4EC" transform="translate(517,429)"/>
<path d="M0 0 C1.98 0 3.96 0 6 0 C5.01 0.33 4.02 0.66 3 1 C3 1.66 3 2.32 3 3 C3.66 3.33 4.32 3.66 5 4 C4.34 4 3.68 4 3 4 C3 4.66 3 5.32 3 6 C0.36 6 -2.28 6 -5 6 C-4.67 4.68 -4.34 3.36 -4 2 C-2.68 2 -1.36 2 0 2 C0 1.34 0 0.68 0 0 Z " fill="#1D393F" transform="translate(333,377)"/>
<path d="M0 0 C1.670625 0.061875 1.670625 0.061875 3.375 0.125 C1.81999019 3.94184226 -0.66095495 6.31695732 -3.625 9.125 C-4.285 8.795 -4.945 8.465 -5.625 8.125 C-5.75 5.25 -5.75 5.25 -5.625 2.125 C-3.625 0.125 -3.625 0.125 0 0 Z " fill="#EDF8EF" transform="translate(149.625,112.875)"/>
<path d="M0 0 C0.33 0 0.66 0 1 0 C1 2.31 1 4.62 1 7 C1.99 7 2.98 7 4 7 C4 5.02 4 3.04 4 1 C4.66 1 5.32 1 6 1 C6 3.31 6 5.62 6 8 C5.34 8 4.68 8 4 8 C3.67 8.66 3.34 9.32 3 10 C2.01 10.33 1.02 10.66 0 11 C-1.16461426 7.50615721 -1.13568319 4.66344611 -1 1 C-0.67 0.67 -0.34 0.34 0 0 Z " fill="#2E8E6F" transform="translate(370,408)"/>
<path d="M0 0 C2.625 0.375 2.625 0.375 5 1 C4.01 2.485 4.01 2.485 3 4 C2.34 4 1.68 4 1 4 C1 4.66 1 5.32 1 6 C0.34 6 -0.32 6 -1 6 C-1 6.66 -1 7.32 -1 8 C-3 9.625 -3 9.625 -5 11 C-5 10.34 -5 9.68 -5 9 C-5.66 8.67 -6.32 8.34 -7 8 C-6.01 8 -5.02 8 -4 8 C-3.71125 7.05125 -3.4225 6.1025 -3.125 5.125 C-2 2 -2 2 0 0 Z " fill="#32937C" transform="translate(476,476)"/>
<path d="M0 0 C-0.33 1.32 -0.66 2.64 -1 4 C-1.99 4 -2.98 4 -4 4 C-3.67 4.99 -3.34 5.98 -3 7 C-5.49092811 8.24546405 -6.41080733 7.7767578 -9 7 C-8.6875 4.625 -8.6875 4.625 -8 2 C-4.77208445 -0.1519437 -3.71599191 -0.20086443 0 0 Z " fill="#EFBA38" transform="translate(308,277)"/>
<path d="M0 0 C0.16682272 4.92127034 0.24828052 8.50343896 -2 13 C-2.66 12.67 -3.32 12.34 -4 12 C-4 8.37 -4 4.74 -4 1 C-1 0 -1 0 0 0 Z " fill="#EFF9F1" transform="translate(63,331)"/>
<path d="M0 0 C-0.66 0.66 -1.32 1.32 -2 2 C-1.01 2.66 -0.02 3.32 1 4 C-1.64 4.33 -4.28 4.66 -7 5 C-7 4.34 -7 3.68 -7 3 C-8.65 3 -10.3 3 -12 3 C-8.52582963 0.68388642 -4.04642977 -2.02321489 0 0 Z " fill="#E3F7E9" transform="translate(388,538)"/>
<path d="M0 0 C0.66 0.33 1.32 0.66 2 1 C3.65480178 6.13859499 4.33534095 9.6586362 3 15 C0.74829688 12.74829688 0.48526 11.67012422 -0.1875 8.625 C-0.36667969 7.85414063 -0.54585938 7.08328125 -0.73046875 6.2890625 C-1.01304909 3.88917728 -0.73503321 2.28329465 0 0 Z " fill="#3BC2A2" transform="translate(75,379)"/>
<path d="M0 0 C0 3.63 0 7.26 0 11 C-0.99 11.33 -1.98 11.66 -3 12 C-3 9.03 -3 6.06 -3 3 C-4.98 3 -6.96 3 -9 3 C-6.01800145 0.01800145 -4.21244839 0 0 0 Z " fill="#062830" transform="translate(379,309)"/>
<path d="M0 0 C0 0.66 0 1.32 0 2 C1.32 2.33 2.64 2.66 4 3 C2.02 3 0.04 3 -2 3 C-2 2.34 -2 1.68 -2 1 C-2.66 1 -3.32 1 -4 1 C-4 2.65 -4 4.3 -4 6 C-5.65 5.67 -7.3 5.34 -9 5 C-8.67 4.01 -8.34 3.02 -8 2 C-8.66 1.67 -9.32 1.34 -10 1 C-6.61981469 -0.04005702 -3.5219721 -0.08004482 0 0 Z " fill="#335053" transform="translate(388,258)"/>
<path d="M0 0 C2.8992226 0.46761655 3.86675182 0.86675182 6 3 C6.99 3.66 7.98 4.32 9 5 C1.41 4.34 -6.18 3.68 -14 3 C-14 2.67 -14 2.34 -14 2 C-13.07316406 1.93941406 -12.14632813 1.87882812 -11.19140625 1.81640625 C-9.39509766 1.69072266 -9.39509766 1.69072266 -7.5625 1.5625 C-5.77005859 1.44068359 -5.77005859 1.44068359 -3.94140625 1.31640625 C-1.11429756 1.32343886 -1.11429756 1.32343886 0 0 Z " fill="#E6F4EE" transform="translate(334,59)"/>
<path d="M0 0 C0 0.33 0 0.66 0 1 C-5.93609666 1.89316269 -11.06975197 1.97040422 -17 1 C-17 0.67 -17 0.34 -17 0 C-10.58604177 -1.93012632 -6.38700473 -2.09029246 0 0 Z " fill="#344C51" transform="translate(254,254)"/>
<path d="M0 0 C0.66 0.99 1.32 1.98 2 3 C-3.0247239 3.62529897 -7.92528427 4.13012092 -13 4 C-8.44545944 0.96363963 -5.63325958 -0.61231082 0 0 Z " fill="#37444C" transform="translate(300,236)"/>
<path d="M0 0 C1.5625 1.25 1.5625 1.25 3 3 C2.6875 5.1875 2.6875 5.1875 2 7 C1.34 7 0.68 7 0 7 C-0.33 7.99 -0.66 8.98 -1 10 C-1 9.34 -1 8.68 -1 8 C-2.98 8.99 -2.98 8.99 -5 10 C-3.66511872 6.40608886 -2.03977277 3.24509304 0 0 Z " fill="#3CC2A2" transform="translate(90,190)"/>
<path d="M0 0 C1.96000056 0.975664 3.9159962 1.95640979 5.859375 2.96484375 C10.47526657 5.3395483 15.11128688 7.25403103 20 9 C16.88109857 10.55945072 14.34501482 9.64552918 11 9 C10.01 8.34 9.02 7.68 8 7 C8 6.34 8 5.68 8 5 C7.236875 4.9175 6.47375 4.835 5.6875 4.75 C2.47626739 3.85384206 1.70625501 2.78388975 0 0 Z " fill="#267D6C" transform="translate(228,365)"/>
<path d="M0 0 C0 0.99 0 1.98 0 3 C-3.11799003 2.24964259 -6.18070403 1.36636589 -9.25 0.4375 C-10.14203125 0.16808594 -11.0340625 -0.10132813 -11.953125 -0.37890625 C-12.62859375 -0.58386719 -13.3040625 -0.78882813 -14 -1 C-14 -1.33 -14 -1.66 -14 -2 C-8.64887908 -3.41647318 -4.64323847 -3.09549231 0 0 Z " fill="#4A4E43" transform="translate(376,299)"/>
<path d="M0 0 C2.56616632 3.84924948 2.55097676 6.4349304 3 11 C2.01 11 1.02 11 0 11 C0 11.66 0 12.32 0 13 C-0.66 13 -1.32 13 -2 13 C-1.48041715 8.62065881 -0.94324258 4.31196609 0 0 Z " fill="#47C4A4" transform="translate(68,245)"/>
<path d="M0 0 C0.89203125 0.01804687 1.7840625 0.03609375 2.703125 0.0546875 C3.71632812 0.08949219 3.71632812 0.08949219 4.75 0.125 C3.43 0.455 2.11 0.785 0.75 1.125 C0.75 1.785 0.75 2.445 0.75 3.125 C1.74 3.455 2.73 3.785 3.75 4.125 C0.84905209 5.57547396 -0.80972596 4.57856803 -3.875 3.6875 C-4.87789062 3.40003906 -5.88078125 3.11257813 -6.9140625 2.81640625 C-7.68492187 2.58824219 -8.45578125 2.36007812 -9.25 2.125 C-6.03817851 0.21891902 -3.71117397 -0.09766247 0 0 Z " fill="#53C5AA" transform="translate(243.25,538.875)"/>
<path d="M0 0 C0.66 0 1.32 0 2 0 C2.90275873 5.51685893 3.85200053 11.58991362 2 17 C-0.05078125 18.2578125 -0.05078125 18.2578125 -2 19 C-2 18.34 -2 17.68 -2 17 C-1.34 16.67 -0.68 16.34 0 16 C0 10.72 0 5.44 0 0 Z " fill="#C47F34" transform="translate(392,424)"/>
<path d="M0 0 C1.32 0.33 2.64 0.66 4 1 C4 1.66 4 2.32 4 3 C6.64 3.33 9.28 3.66 12 4 C12.33 5.32 12.66 6.64 13 8 C8.1725201 6.58707905 4.2837641 4.57025846 0 2 C0 1.34 0 0.68 0 0 Z " fill="#1A4748" transform="translate(224,361)"/>
<path d="M0 0 C5.54959786 -0.36997319 5.54959786 -0.36997319 7.75 1.4375 C8.36875 2.2109375 8.36875 2.2109375 9 3 C9.66 3.33 10.32 3.66 11 4 C11.625 6.0625 11.625 6.0625 12 8 C7.44328408 6.48109469 3.68276708 4.04597738 0 1 C0 0.67 0 0.34 0 0 Z " fill="#DFF5E9" transform="translate(436,98)"/>
<path d="M0 0 C0.33 0 0.66 0 1 0 C1.04898437 1.19238281 1.09796875 2.38476562 1.1484375 3.61328125 C1.22347604 5.17971068 1.2990234 6.74611579 1.375 8.3125 C1.4059375 9.09818359 1.436875 9.88386719 1.46875 10.69335938 C1.50742187 11.45068359 1.54609375 12.20800781 1.5859375 12.98828125 C1.6173584 13.68477783 1.6487793 14.38127441 1.68115234 15.09887695 C1.92118253 17.32532739 1.92118253 17.32532739 4 20 C-2.15234375 19.4140625 -2.15234375 19.4140625 -4 19 C-4.33 18.34 -4.66 17.68 -5 17 C-3.35 17.33 -1.7 17.66 0 18 C0 12.06 0 6.12 0 0 Z " fill="#F0DA95" transform="translate(377,428)"/>
<path d="M0 0 C6.75 0.75 6.75 0.75 9 3 C9.33 3.99 9.66 4.98 10 6 C4.06 4.515 4.06 4.515 -2 3 C-1.34 2.01 -0.68 1.02 0 0 Z " fill="#DAAA3E" transform="translate(346,295)"/>
<path d="M0 0 C5.28 0.33 10.56 0.66 16 1 C12.68629 3.20914 11.6553979 3.22481553 7.8125 3.125 C6.91144531 3.10695313 6.01039063 3.08890625 5.08203125 3.0703125 C4.39496094 3.04710937 3.70789063 3.02390625 3 3 C3 2.34 3 1.68 3 1 C2.01 0.67 1.02 0.34 0 0 Z " fill="#ECFAF2" transform="translate(264,548)"/>
<path d="M0 0 C1.2065625 0.0309375 1.2065625 0.0309375 2.4375 0.0625 C2.4375 0.7225 2.4375 1.3825 2.4375 2.0625 C-1.02472615 3.12973961 -4.20289266 3.16423486 -7.8125 3.125 C-8.89015625 3.11597656 -9.9678125 3.10695313 -11.078125 3.09765625 C-11.89796875 3.08605469 -12.7178125 3.07445312 -13.5625 3.0625 C-13.5625 2.4025 -13.5625 1.7425 -13.5625 1.0625 C-12.85222656 1.07410156 -12.14195312 1.08570313 -11.41015625 1.09765625 C-10.49105469 1.10667969 -9.57195312 1.11570312 -8.625 1.125 C-7.25021484 1.14240234 -7.25021484 1.14240234 -5.84765625 1.16015625 C-3.00788287 1.03879841 -2.9400358 0.07170819 0 0 Z " fill="#394457" transform="translate(325.5625,291.9375)"/>
<path d="M0 0 C-2.77280706 3.08089673 -5.06326356 4.68775452 -9 6 C-9.33 4.68 -9.66 3.36 -10 2 C-6.3558226 -0.4294516 -4.28758728 -0.16179575 0 0 Z " fill="#30937C" transform="translate(445,507)"/>
<path d="M0 0 C3.94727588 -0.17942163 6.5980513 -0.09350689 10 2 C10 2.66 10 3.32 10 4 C6.7 3.67 3.4 3.34 0 3 C0 2.01 0 1.02 0 0 Z " fill="#434E4A" transform="translate(312,288)"/>
<path d="M0 0 C-1.423125 0.680625 -1.423125 0.680625 -2.875 1.375 C-6.00313679 2.80238254 -6.00313679 2.80238254 -8 5 C-11.625 4.625 -11.625 4.625 -15 4 C-12.60939149 2.40626099 -10.69171821 1.34702924 -8.0625 0.3125 C-7.39347656 0.04050781 -6.72445312 -0.23148437 -6.03515625 -0.51171875 C-3.67169662 -1.0787676 -2.2807201 -0.76024003 0 0 Z " fill="#2D5D5A" transform="translate(196,270)"/>
<path d="M0 0 C0 0.66 0 1.32 0 2 C0.66 2.33 1.32 2.66 2 3 C-5.42857143 3.28571429 -5.42857143 3.28571429 -9 1 C-9 0.34 -9 -0.32 -9 -1 C-5.79937313 -2.60031344 -3.27728194 -1.03173691 0 0 Z " fill="#EFB030" transform="translate(338,291)"/>
<path d="M0 0 C8.57142857 0.71428571 8.57142857 0.71428571 12 4 C8.30458414 4.95024979 5.69541586 4.95024979 2 4 C2.33 3.01 2.66 2.02 3 1 C2.01 0.67 1.02 0.34 0 0 Z M4 5 C7 6 7 6 7 6 Z " fill="#334349" transform="translate(426,274)"/>
<path d="M0 0 C0.66 0 1.32 0 2 0 C2 0.66 2 1.32 2 2 C4.97 2.495 4.97 2.495 8 3 C8.33 3.99 8.66 4.98 9 6 C4.6109185 5.48964169 1.66291938 4.47785723 -2 2 C-1.34 1.34 -0.68 0.68 0 0 Z " fill="#43C3A2" transform="translate(181,514)"/>
<path d="M0 0 C0.66 0.66 1.32 1.32 2 2 C1.8125 4.0625 1.8125 4.0625 1 6 C0.01 6.33 -0.98 6.66 -2 7 C-2 6.34 -2 5.68 -2 5 C-3.65 4.67 -5.3 4.34 -7 4 C-4.35261084 2.5393715 -3.10551666 2 0 2 C0 1.34 0 0.68 0 0 Z " fill="#2C917A" transform="translate(432,510)"/>
<path d="M0 0 C3.99996286 1.33332095 4.83782337 3.4957827 7 7 C5.02 7.99 5.02 7.99 3 9 C2.34 7.35 1.68 5.7 1 4 C0.34 4 -0.32 4 -1 4 C-0.67 2.68 -0.34 1.36 0 0 Z " fill="#ECFAEF" transform="translate(125,472)"/>
<path d="M0 0 C4.29 0.66 8.58 1.32 13 2 C13 2.33 13 2.66 13 3 C11.39658445 3.33692785 9.79223445 3.66941093 8.1875 4 C7.29417969 4.185625 6.40085937 4.37125 5.48046875 4.5625 C3 5 3 5 0 5 C0 3.35 0 1.7 0 0 Z " fill="#3B4647" transform="translate(296,273)"/>
<path d="M0 0 C2.64 0 5.28 0 8 0 C8 0.33 8 0.66 8 1 C10.97 1.495 10.97 1.495 14 2 C14 2.33 14 2.66 14 3 C9.71 3 5.42 3 1 3 C0.67 2.01 0.34 1.02 0 0 Z " fill="#EEF9EF" transform="translate(331,549)"/>
<path d="M0 0 C0.99 0.33 1.98 0.66 3 1 C3 2.65 3 4.3 3 6 C2.34 6 1.68 6 1 6 C0.67 9.63 0.34 13.26 0 17 C-0.33 17 -0.66 17 -1 17 C-1.18451025 5.47835991 -1.18451025 5.47835991 0 0 Z " fill="#F7DDA9" transform="translate(372,426)"/>
<path d="M0 0 C0 0.33 0 0.66 0 1 C-1.093125 1.12375 -2.18625 1.2475 -3.3125 1.375 C-7.07381802 1.75464801 -7.07381802 1.75464801 -10 4 C-11.19232613 6.05003955 -11.19232613 6.05003955 -12 8 C-12.33 6.35 -12.66 4.7 -13 3 C-9.21656826 -0.94792877 -5.07874402 -0.29300446 0 0 Z " fill="#C1A236" transform="translate(310,276)"/>
<path d="M0 0 C0 1.32 0 2.64 0 4 C-2.90600261 5.25664978 -4.79604584 6 -8 6 C-8 4 -8 4 -6.6875 2.4375 C-4.56310806 0.62783279 -2.79465489 0 0 0 Z " fill="#32464C" transform="translate(408,266)"/>
<path d="M0 0 C1.65 0 3.3 0 5 0 C5 1.32 5 2.64 5 4 C4.34 4 3.68 4 3 4 C2.67 5.32 2.34 6.64 2 8 C0.23537317 4.91190305 0 3.76687864 0 0 Z " fill="#EDFBF2" transform="translate(546,256)"/>
<path d="M0 0 C2.56687367 3.8503105 1.83288724 5.58569763 1 10 C0.34 10 -0.32 10 -1 10 C-1.66 8.02 -2.32 6.04 -3 4 C-2.34 3.67 -1.68 3.34 -1 3 C-0.67 2.01 -0.34 1.02 0 0 Z " fill="#F0F9EE" transform="translate(533,203)"/>
<path d="M0 0 C0.66 0 1.32 0 2 0 C2.69710731 1.28650706 3.38242876 2.57940665 4.0625 3.875 C4.63677734 4.95394531 4.63677734 4.95394531 5.22265625 6.0546875 C5.47917969 6.69664062 5.73570313 7.33859375 6 8 C5.67 8.66 5.34 9.32 5 10 C3.0625 9.5 3.0625 9.5 1 8 C0.31209578 5.30341548 0.18053536 2.7982981 0 0 Z " fill="#EAF9F0" transform="translate(88,420)"/>
<path d="M0 0 C2.64465038 3.1254959 3.84414715 6.08788267 5 10 C4.01 9.67 3.02 9.34 2 9 C1.66666667 7.66666667 1.33333333 6.33333333 1 5 C0.01 4.67 -0.98 4.34 -2 4 C-1.34 2.68 -0.68 1.36 0 0 Z " fill="#4EC2A7" transform="translate(524,195)"/>
<path d="M0 0 C-1.32 0.33 -2.64 0.66 -4 1 C-4 1.66 -4 2.32 -4 3 C-7.3 3 -10.6 3 -14 3 C-9.85211179 -1.14788821 -5.49312659 -1.30788728 0 0 Z " fill="#ECF7EA" transform="translate(214,532)"/>
<path d="M0 0 C0.33 0 0.66 0 1 0 C1 4.29 1 8.58 1 13 C-1.56616632 9.15075052 -1.55097676 6.5650696 -2 2 C-1.34 2 -0.68 2 0 2 C0 1.34 0 0.68 0 0 Z " fill="#47C2A3" transform="translate(68,352)"/>
<path d="M0 0 C1.65 0.33 3.3 0.66 5 1 C2.6875 3.5 2.6875 3.5 0 6 C-0.99 6 -1.98 6 -3 6 C-3.66 4.68 -4.32 3.36 -5 2 C-3.35 2 -1.7 2 0 2 C0 1.34 0 0.68 0 0 Z " fill="#1F836E" transform="translate(192,305)"/>
<path d="M0 0 C-0.6875 1.9375 -0.6875 1.9375 -2 4 C-4.4375 4.875 -4.4375 4.875 -7 5 C-7.99 4.34 -8.98 3.68 -10 3 C-8.70990357 2.49596232 -7.41786211 1.99690074 -6.125 1.5 C-5.04605469 1.08234375 -5.04605469 1.08234375 -3.9453125 0.65625 C-2 0 -2 0 0 0 Z " fill="#354F53" transform="translate(258,248)"/>
<path d="M0 0 C1.65 0 3.3 0 5 0 C5 0.99 5 1.98 5 3 C2 5.1875 2 5.1875 -1 7 C-0.67 4.69 -0.34 2.38 0 0 Z " fill="#E9F7EE" transform="translate(130,129)"/>
<path d="M0 0 C0.5534764 2.07553648 1 3.84365964 1 6 C0.01 6.495 0.01 6.495 -1 7 C-1.33 7.66 -1.66 8.32 -2 9 C-4.0625 9.625 -4.0625 9.625 -6 10 C-5.18957164 8.51969728 -4.37659652 7.04078858 -3.5625 5.5625 C-2.88380859 4.32693359 -2.88380859 4.32693359 -2.19140625 3.06640625 C-1 1 -1 1 0 0 Z " fill="#DEF0E4" transform="translate(509,442)"/>
<path d="M0 0 C0.78375 0.04125 1.5675 0.0825 2.375 0.125 C2.045 0.785 1.715 1.445 1.375 2.125 C0.385 2.125 -0.605 2.125 -1.625 2.125 C-1.955 3.775 -2.285 5.425 -2.625 7.125 C-3.285 7.125 -3.945 7.125 -4.625 7.125 C-4.75 4.75 -4.75 4.75 -4.625 2.125 C-2.625 0.125 -2.625 0.125 0 0 Z " fill="#F3D383" transform="translate(381.625,405.875)"/>
<path d="M0 0 C0.99 0.495 0.99 0.495 2 1 C1.67 3.97 1.34 6.94 1 10 C2.65 10.33 4.3 10.66 6 11 C6 11.66 6 12.32 6 13 C3.03 12.505 3.03 12.505 0 12 C0 8.04 0 4.08 0 0 Z " fill="#164948" transform="translate(156,282)"/>
<path d="M0 0 C1.32 0.33 2.64 0.66 4 1 C4.33 2.65 4.66 4.3 5 6 C6.32 6.33 7.64 6.66 9 7 C7.35 7 5.7 7 4 7 C4 6.01 4 5.02 4 4 C3.34 4 2.68 4 2 4 C1.67 4.99 1.34 5.98 1 7 C-0.231394 4.53721199 -0.07159196 2.7204945 0 0 Z " fill="#BC8631" transform="translate(310,277)"/>
<path d="M0 0 C-5.29230769 4.06153846 -5.29230769 4.06153846 -8.875 3.75 C-9.57625 3.5025 -10.2775 3.255 -11 3 C-10 1 -10 1 -8.22265625 0.33203125 C-7.15337891 0.07486328 -7.15337891 0.07486328 -6.0625 -0.1875 C-5.35222656 -0.36667969 -4.64195312 -0.54585938 -3.91015625 -0.73046875 C-2 -1 -2 -1 0 0 Z " fill="#305A5A" transform="translate(175,277)"/>
<path d="M0 0 C2.28304899 0.0179485 4.52425196 0.11763285 6.796875 0.33203125 C4.44773008 2.68117617 2.84008054 3.06343482 -0.328125 3.95703125 C-1.69324219 4.34761719 -1.69324219 4.34761719 -3.0859375 4.74609375 C-3.78460938 4.93945312 -4.48328125 5.1328125 -5.203125 5.33203125 C-4.06475685 2.29638286 -3.36675282 0.50740069 0 0 Z " fill="#CBF1E3" transform="translate(217.203125,74.66796875)"/>
<path d="M0 0 C-0.66 0 -1.32 0 -2 0 C-2 0.99 -2 1.98 -2 3 C-4.31 3 -6.62 3 -9 3 C-8.67 2.01 -8.34 1.02 -8 0 C-5.04215769 -1.22393475 -3.00272755 -0.96516243 0 0 Z " fill="#42C2A0" transform="translate(263,66)"/>
<path d="M0 0 C2.64 0.33 5.28 0.66 8 1 C7.01 1.33 6.02 1.66 5 2 C5 2.66 5 3.32 5 4 C5.66 4.33 6.32 4.66 7 5 C5.35 4.67 3.7 4.34 2 4 C2 3.34 2 2.68 2 2 C1.34 2 0.68 2 0 2 C0 1.34 0 0.68 0 0 Z " fill="#E8F9F0" transform="translate(251,545)"/>
<path d="M0 0 C0.33 0.66 0.66 1.32 1 2 C1.66 2 2.32 2 3 2 C3 3.65 3 5.3 3 7 C2.34 7 1.68 7 1 7 C0.67 8.32 0.34 9.64 0 11 C-1.28571429 3.57142857 -1.28571429 3.57142857 0 0 Z " fill="#BD842D" transform="translate(389,416)"/>
<path d="M0 0 C2.75 0.8125 2.75 0.8125 5 2 C4.67 3.65 4.34 5.3 4 7 C3.67 5.68 3.34 4.36 3 3 C0.69 3 -1.62 3 -4 3 C-2.3125 1.375 -2.3125 1.375 0 0 Z " fill="#CE8624" transform="translate(384,414)"/>
<path d="M0 0 C0.99 0.33 1.98 0.66 3 1 C2.67 2.32 2.34 3.64 2 5 C2.99 5.33 3.98 5.66 5 6 C5 6.66 5 7.32 5 8 C2.69 7.34 0.38 6.68 -2 6 C-1.34 4.02 -0.68 2.04 0 0 Z " fill="#484B41" transform="translate(327,280)"/>
<path d="M0 0 C0.99 0.99 1.98 1.98 3 3 C2.01 5.31 1.02 7.62 0 10 C-0.33 10 -0.66 10 -1 10 C-2.25 3.375 -2.25 3.375 0 0 Z " fill="#EFF9EE" transform="translate(91,180)"/>
<path d="M0 0 C3 0 3 0 5.1875 1.875 C7 4 7 4 7 6 C7.66 6.33 8.32 6.66 9 7 C8.34 7 7.68 7 7 7 C6.67 7.66 6.34 8.32 6 9 C4.02 6.03 2.04 3.06 0 0 Z " fill="#E7F7EF" transform="translate(504,162)"/>
<path d="M0 0 C1.65 0.99 3.3 1.98 5 3 C4.34 3.66 3.68 4.32 3 5 C-0.625 4.625 -0.625 4.625 -4 4 C-3.67 3.34 -3.34 2.68 -3 2 C-2.01 2 -1.02 2 0 2 C0 1.34 0 0.68 0 0 Z " fill="#ECF9F0" transform="translate(166,507)"/>
<path d="M0 0 C0.66 0.33 1.32 0.66 2 1 C2 1.99 2 2.98 2 4 C-1.33333333 7 -1.33333333 7 -4 7 C-2.92598892 4.08482708 -2.22189824 2.22189824 0 0 Z " fill="#2F947B" transform="translate(453,497)"/>
<path d="M0 0 C0.66 0 1.32 0 2 0 C2.40178571 8.03571429 2.40178571 8.03571429 -1 12 C-1.02698189 10.37509046 -1.04638757 8.75005367 -1.0625 7.125 C-1.07410156 6.22007812 -1.08570313 5.31515625 -1.09765625 4.3828125 C-1 2 -1 2 0 0 Z " fill="#F5EBC3" transform="translate(373,432)"/>
<path d="M0 0 C7.75 1.875 7.75 1.875 10 3 C10 3.66 10 4.32 10 5 C2.25 3.125 2.25 3.125 0 2 C0 1.34 0 0.68 0 0 Z " fill="#278471" transform="translate(248,375)"/>
<path d="M0 0 C0.99 0.33 1.98 0.66 3 1 C2.25 3.4375 2.25 3.4375 1 6 C-1.125 6.8125 -1.125 6.8125 -3 7 C-3 3 -3 3 -1.5 1.25 C-1.005 0.8375 -0.51 0.425 0 0 Z " fill="#EFF8EE" transform="translate(107,157)"/>
<path d="M0 0 C2 3.75 2 3.75 2 6 C1.34 6 0.68 6 0 6 C0 6.66 0 7.32 0 8 C-0.99 7.67 -1.98 7.34 -3 7 C-1.125 2.25 -1.125 2.25 0 0 Z " fill="#E2EFE6" transform="translate(517,429)"/>
<path d="M0 0 C1.80330533 3.60661066 2.46599103 6.08393425 3 10 C1.68 10 0.36 10 -1 10 C-0.67 6.7 -0.34 3.4 0 0 Z " fill="#E0F6EB" transform="translate(73,382)"/>
<path d="M0 0 C3.3 0 6.6 0 10 0 C10 0.66 10 1.32 10 2 C5.94568308 3.15837626 3.78187881 2.83691257 0 1 C0 0.67 0 0.34 0 0 Z " fill="#314652" transform="translate(360,306)"/>
<path d="M0 0 C2.96175123 0.61277612 4.38058783 1.25372522 7 3 C4.29120665 4.35439668 1.99066732 4.06501451 -1 4 C-0.67 2.68 -0.34 1.36 0 0 Z " fill="#30474C" transform="translate(449,280)"/>
<path d="M0 0 C0.66 0 1.32 0 2 0 C2 1.65 2 3.3 2 5 C1.34 5 0.68 5 0 5 C-0.33 5.99 -0.66 6.98 -1 8 C-1.625 5.125 -1.625 5.125 -2 2 C-1.34 1.34 -0.68 0.68 0 0 Z " fill="#F3FAEF" transform="translate(514,168)"/>
<path d="M0 0 C3.8063457 0.67170806 7.35206816 1.72746564 11 3 C8 5 8 5 4.375 4.3125 C3.26125 3.879375 2.1475 3.44625 1 3 C0.67 2.01 0.34 1.02 0 0 Z " fill="#52C3A6" transform="translate(381,73)"/>
<path d="M0 0 C2 1 2 1 2 1 Z M0 1 C0 1.66 0 2.32 0 3 C0.66 3.33 1.32 3.66 2 4 C-0.60582371 4.93065133 -1.64198224 5.14917407 -4.25 4.0625 C-4.8275 3.711875 -5.405 3.36125 -6 3 C-2.25 1 -2.25 1 0 1 Z " fill="#49C5A7" transform="translate(222,531)"/>
<path d="M0 0 C0.33 0.99 0.66 1.98 1 3 C0.67 3.66 0.34 4.32 0 5 C-2.64860427 5.59355614 -5.29197322 5.74209269 -8 6 C-5.51047079 3.33264727 -3.36591866 1.44253657 0 0 Z " fill="#D3EBE2" transform="translate(439,511)"/>
<path d="M0 0 C0.99 0.33 1.98 0.66 3 1 C2.67 2.11375 2.34 3.2275 2 4.375 C0.911357 7.69459717 0.911357 7.69459717 1 10 C0.34 10 -0.32 10 -1 10 C-1.02689216 8.52093108 -1.04634621 7.04172517 -1.0625 5.5625 C-1.07410156 4.73878906 -1.08570313 3.91507812 -1.09765625 3.06640625 C-1 1 -1 1 0 0 Z " fill="#132F37" transform="translate(306,332)"/>
<path d="M0 0 C0 0.99 0 1.98 0 3 C-1.98 3 -3.96 3 -6 3 C-6 2.01 -6 1.02 -6 0 C-3.50907189 -1.24546405 -2.58919267 -0.7767578 0 0 Z " fill="#304C4E" transform="translate(164,281)"/>
<path d="M0 0 C2 3.75 2 3.75 2 6 C1.01 6 0.02 6 -1 6 C-1.33 7.32 -1.66 8.64 -2 10 C-2 7.36 -2 4.72 -2 2 C-1.34 2 -0.68 2 0 2 C0 1.34 0 0.68 0 0 Z " fill="#46C1A3" transform="translate(541,238)"/>
<path d="M0 0 C1.37562854 1.28965176 2.70766393 2.62689293 4 4 C4 4.66 4 5.32 4 6 C2.35 6 0.7 6 -1 6 C-0.67 4.02 -0.34 2.04 0 0 Z " fill="#46C3A7" transform="translate(500,157)"/>
<path d="M0 0 C2.33944736 0.28730055 4.6739143 0.61936779 7 1 C4.38058783 2.74627478 2.96175123 3.38722388 0 4 C-0.33 3.01 -0.66 2.02 -1 1 C-0.67 0.67 -0.34 0.34 0 0 Z " fill="#40BFA1" transform="translate(390,532)"/>
<path d="M0 0 C2.64 0.99 5.28 1.98 8 3 C4.77208445 5.1519437 3.71599191 5.20086443 0 5 C0.66 4.67 1.32 4.34 2 4 C2 3.34 2 2.68 2 2 C1.34 2 0.68 2 0 2 C0 1.34 0 0.68 0 0 Z " fill="#364554" transform="translate(360,308)"/>
<path d="M0 0 C-2 2 -2 2 -5.5 2.25 C-9 2 -9 2 -11 0 C-7.18243176 -1.37432457 -3.92744671 -0.67975039 0 0 Z " fill="#1C363E" transform="translate(206,305)"/>
<path d="M0 0 C0 0.99 0 1.98 0 3 C1.32 3 2.64 3 4 3 C4 3.66 4 4.32 4 5 C0.7 4.01 -2.6 3.02 -6 2 C-2 0 -2 0 0 0 Z " fill="#34A88F" transform="translate(374,251)"/>
<path d="M0 0 C0.66 0 1.32 0 2 0 C4.17364926 2.81769349 5.08677021 4.2190681 4.6875 7.8125 C4.460625 8.534375 4.23375 9.25625 4 10 C1.81024227 6.71536341 1.00193437 3.79303725 0 0 Z " fill="#EAF9F2" transform="translate(538,228)"/>
<path d="M0 0 C0.66 0.33 1.32 0.66 2 1 C1.01 4.3 0.02 7.6 -1 11 C-1.66 9.68 -2.32 8.36 -3 7 C-1.625 3.25 -1.625 3.25 0 0 Z " fill="#E3F9EE" transform="translate(80,205)"/>
<path d="M0 0 C-2.85306797 2.32472205 -5.54074837 3.7508258 -9 5 C-9 4.01 -9 3.02 -9 2 C-5.5647952 -0.29013653 -4.014669 -0.17842973 0 0 Z " fill="#D2F3E7" transform="translate(206,82)"/>
<path d="M0 0 C2.31 0 4.62 0 7 0 C7 0.66 7 1.32 7 2 C7.99 2 8.98 2 10 2 C10 2.66 10 3.32 10 4 C6.7 3.01 3.4 2.02 0 1 C0 0.67 0 0.34 0 0 Z " fill="#EAFBF0" transform="translate(384,73)"/>
<path d="M0 0 C0.6875 2.0625 0.6875 2.0625 1 4 C-1.02045442 3.39816251 -3.02111039 2.72693904 -5 2 C-5.33 1.34 -5.66 0.68 -6 0 C-3 -1 -3 -1 0 0 Z " fill="#4AC3A5" transform="translate(198,522)"/>
<path d="M0 0 C0.12375 0.639375 0.2475 1.27875 0.375 1.9375 C0.58125 2.618125 0.7875 3.29875 1 4 C1.66 4.33 2.32 4.66 3 5 C2.67 6.65 2.34 8.3 2 10 C1.01 9.34 0.02 8.68 -1 8 C-0.67 5.36 -0.34 2.72 0 0 Z " fill="#FCE1AD" transform="translate(373,436)"/>
<path d="M0 0 C1 2 1 2 0.375 4.5 C-1 7 -1 7 -3.625 8.3125 C-4.40875 8.539375 -5.1925 8.76625 -6 9 C-5.071875 7.88625 -5.071875 7.88625 -4.125 6.75 C-2.39562719 4.51198812 -1.13893339 2.56260013 0 0 Z " fill="#247768" transform="translate(399,348)"/>
<path d="M0 0 C-0.66 0 -1.32 0 -2 0 C-2.33 0.99 -2.66 1.98 -3 3 C-5.875 3.625 -5.875 3.625 -9 4 C-9.66 3.34 -10.32 2.68 -11 2 C-9.73392393 1.46770674 -8.46189588 0.94955456 -7.1875 0.4375 C-6.47980469 0.14746094 -5.77210938 -0.14257812 -5.04296875 -0.44140625 C-3 -1 -3 -1 0 0 Z " fill="#0C2A31" transform="translate(368,313)"/>
<path d="M0 0 C-0.33 0.66 -0.66 1.32 -1 2 C-4.37462715 1.45276317 -6.08235 0.9451 -9 -1 C-5.23375329 -2.25541557 -3.62811066 -1.37061958 0 0 Z " fill="#F2B230" transform="translate(361,299)"/>
<path d="M0 0 C0 0.99 0 1.98 0 3 C-5.75 2.25 -5.75 2.25 -8 0 C-2.25 -1.125 -2.25 -1.125 0 0 Z " fill="#4F4D3C" transform="translate(352,291)"/>
<path d="M0 0 C-1.4036827 2.80736541 -3.10783413 2.96708362 -6 4 C-6.99 4.33 -7.98 4.66 -9 5 C-7.35234966 0.05704899 -4.76872479 -0.25776891 0 0 Z " fill="#FBD198" transform="translate(308,277)"/>
<path d="M0 0 C0.66 0 1.32 0 2 0 C1.67 2.64 1.34 5.28 1 8 C0.34 8 -0.32 8 -1 8 C-0.67 5.36 -0.34 2.72 0 0 Z " fill="#28C39F" transform="translate(69,256)"/>
<path d="M0 0 C0 0.66 0 1.32 0 2 C-1.32 2 -2.64 2 -4 2 C-4 2.99 -4 3.98 -4 5 C-6.97 4.505 -6.97 4.505 -10 4 C-6.86268382 1.90845588 -3.85464592 0 0 0 Z " fill="#42C0A1" transform="translate(234,72)"/>
<path d="M0 0 C0.99 0.33 1.98 0.66 3 1 C3 1.99 3 2.98 3 4 C3.99 4.33 4.98 4.66 6 5 C4.02 5 2.04 5 0 5 C0 4.01 0 3.02 0 2 C-0.66 1.67 -1.32 1.34 -2 1 C-1.34 0.67 -0.68 0.34 0 0 Z " fill="#3BC2A2" transform="translate(354,66)"/>
<path d="M0 0 C0.33 1.32 0.66 2.64 1 4 C1.66 4 2.32 4 3 4 C3.33 3.01 3.66 2.02 4 1 C3.67 3.31 3.34 5.62 3 8 C2.67 7.34 2.34 6.68 2 6 C1.34 6 0.68 6 0 6 C0 4.02 0 2.04 0 0 Z " fill="#E8FAEE" transform="translate(547,346)"/>
<path d="M0 0 C0.78375 0.04125 1.5675 0.0825 2.375 0.125 C2.375 1.115 2.375 2.105 2.375 3.125 C0.065 2.795 -2.245 2.465 -4.625 2.125 C-2.625 0.125 -2.625 0.125 0 0 Z " fill="#4D4F42" transform="translate(356.625,292.875)"/>
<path d="M0 0 C-0.66 1.32 -1.32 2.64 -2 4 C-4.97 3.505 -4.97 3.505 -8 3 C-2 0 -2 0 0 0 Z " fill="#3C4743" transform="translate(318,274)"/>
<path d="M0 0 C2 4 2 4 1.75 6.125 C1 8 1 8 -1 10 C-0.67 6.7 -0.34 3.4 0 0 Z " fill="#51C5A8" transform="translate(546,260)"/>
<path d="M0 0 C2 2 2 2 2.125 4.625 C2.08375 5.40875 2.0425 6.1925 2 7 C1.67 6.34 1.34 5.68 1 5 C-0.98 5.99 -0.98 5.99 -3 7 C-1.125 2.25 -1.125 2.25 0 0 Z " fill="#59C6AC" transform="translate(88,193)"/>
<path d="M0 0 C0.66 0.33 1.32 0.66 2 1 C1.67 2.32 1.34 3.64 1 5 C-1.97 4.505 -1.97 4.505 -5 4 C-3.35 2.68 -1.7 1.36 0 0 Z " fill="#48C6A6" transform="translate(189,90)"/>
</svg>
